$MeshFormat
4.1 0 8
$EndMeshFormat
$PhysicalNames
4
2 1 "inlet"
2 2 "outlet"
2 3 "side_surface"
3 4 "cyl_volume"
$EndPhysicalNames
$Entities
10 12 6 1
1 0 0 -200 0 
2 4 0 -200 0 
3 0 4 -200 0 
4 -4 0 -200 0 
5 0 -4 -200 0 
6 4 0 200 0 
7 0 0 200 0 
8 0 4 200 0 
13 -4 0 200 0 
18 0 -4 200 0 
1 2.220446049250313e-16 0 -200 4 4 -200 0 2 2 -3 
2 -4 2.220446049250313e-16 -200 0 4 -200 0 2 3 -4 
3 -4 -4 -200 -2.220446049250313e-16 0 -200 0 2 4 -5 
4 0 -4 -200 4 -2.220446049250313e-16 -200 0 2 5 -2 
6 2.220446049250313e-16 0 200 4 4 200 0 2 6 -8 
7 -4 2.220446049250313e-16 200 0 4 200 0 2 8 -13 
8 -4 -4 200 -2.220446049250313e-16 0 200 0 2 13 -18 
9 0 -4 200 4 -2.220446049250313e-16 200 0 2 18 -6 
11 4 0 -200 4 0 200 0 2 2 -6 
12 0 4 -200 0 4 200 0 2 3 -8 
16 -4 0 -200 -4 0 200 0 2 4 -13 
20 0 -4 -200 0 -4 200 0 2 5 -18 
1 -4 -4 -200 4 4 -200 1 1 4 1 2 3 4 
13 0 0 -200 4 4 200 1 3 4 1 12 -6 -11 
17 -4 0 -200 0 4 200 1 3 4 2 16 -7 -12 
21 -4 -4 -200 0 0 200 1 3 4 3 20 -8 -16 
25 0 -4 -200 4 0 200 1 3 4 4 11 -9 -20 
26 -4 -4 200 4 4 200 1 2 4 6 7 8 9 
1 -4 -4 -200 4 4 200 1 4 6 -1 26 13 17 21 25 
$EndEntities
$Nodes
27 662 1 662
0 2 0 1
1
4 0 -200
0 3 0 1
2
0 4 -200
0 4 0 1
3
-4 0 -200
0 5 0 1
4
0 -4 -200
0 6 0 1
5
4 0 200
0 8 0 1
6
0 4 200
0 13 0 1
7
-4 0 200
0 18 0 1
8
0 -4 200
1 1 0 1
9
2.828427118307051 2.828427131185329 -200
1 2 0 1
10
-2.828427131185329 2.828427118307051 -200
1 3 0 1
11
-2.828427118307051 -2.828427131185329 -200
1 4 0 1
12
2.828427131185329 -2.828427118307051 -200
1 6 0 1
13
2.828427118307051 2.828427131185329 200
1 7 0 1
14
-2.828427131185329 2.828427118307051 200
1 8 0 1
15
-2.828427118307051 -2.828427131185329 200
1 9 0 1
16
2.828427131185329 -2.828427118307051 200
1 11 0 79
17
18
19
20
21
22
23
24
25
26
27
28
29
30
31
32
33
34
35
36
37
38
39
40
41
42
43
44
45
46
47
48
49
50
51
52
53
54
55
56
57
58
59
60
61
62
63
64
65
66
67
68
69
70
71
72
73
74
75
76
77
78
79
80
81
82
83
84
85
86
87
88
89
90
91
92
93
94
95
4 0 -195.0000000000085
4 0 -190.0000000000169
4 0 -185.0000000000254
4 0 -180.0000000000339
4 0 -175.0000000000423
4 0 -170.0000000000508
4 0 -165.0000000000593
4 0 -160.0000000000677
4 0 -155.0000000000762
4 0 -150.0000000000902
4 0 -145.0000000001286
4 0 -140.0000000001726
4 0 -135.0000000002166
4 0 -130.0000000002606
4 0 -125.0000000002991
4 0 -120.0000000003253
4 0 -115.0000000003515
4 0 -110.0000000003778
4 0 -105.000000000404
4 0 -100.0000000004302
4 0 -95.00000000045642
4 0 -90.00000000048267
4 0 -85.00000000050892
4 0 -80.00000000053514
4 0 -75.00000000056137
4 0 -70.00000000057537
4 0 -65.00000000058384
4 0 -60.00000000059231
4 0 -55.00000000060078
4 0 -50.00000000060925
4 0 -45.00000000061769
4 0 -40.00000000062616
4 0 -35.0000000006346
4 0 -30.00000000064307
4 0 -25.00000000065151
4 0 -20.00000000066001
4 0 -15.00000000066848
4 0 -10.00000000067695
4 0 -5.000000000685446
4 0 -6.938876140338834e-10
4 0 4.999999999297643
4 0 9.999999999289201
4 0 14.9999999992807
4 0 19.99999999927223
4 0 24.99999999926379
4 0 29.99999999925532
4 0 34.99999999924688
4 0 39.99999999923841
4 0 44.99999999922991
4 0 49.99999999922147
4 0 54.99999999921968
4 0 59.99999999924228
4 0 64.99999999926933
4 0 69.99999999929639
4 0 74.99999999932345
4 0 79.99999999935056
4 0 84.99999999937762
4 0 89.99999999940468
4 0 94.99999999943174
4 0 99.99999999945879
4 0 104.9999999994859
4 0 109.9999999995129
4 0 114.99999999954
4 0 119.999999999567
4 0 124.9999999995941
4 0 129.9999999996211
4 0 134.9999999996482
4 0 139.9999999996753
4 0 144.9999999997024
4 0 149.9999999997294
4 0 154.9999999997564
4 0 159.9999999997835
4 0 164.9999999998106
4 0 169.9999999998377
4 0 174.9999999998647
4 0 179.9999999998918
4 0 184.9999999999189
4 0 189.9999999999459
4 0 194.9999999999729
1 12 0 79
96
97
98
99
100
101
102
103
104
105
106
107
108
109
110
111
112
113
114
115
116
117
118
119
120
121
122
123
124
125
126
127
128
129
130
131
132
133
134
135
136
137
138
139
140
141
142
143
144
145
146
147
148
149
150
151
152
153
154
155
156
157
158
159
160
161
162
163
164
165
166
167
168
169
170
171
172
173
174
0 4 -195.0000000000085
0 4 -190.0000000000169
0 4 -185.0000000000254
0 4 -180.0000000000339
0 4 -175.0000000000423
0 4 -170.0000000000508
0 4 -165.0000000000593
0 4 -160.0000000000677
0 4 -155.0000000000762
0 4 -150.0000000000902
0 4 -145.0000000001286
0 4 -140.0000000001726
0 4 -135.0000000002166
0 4 -130.0000000002606
0 4 -125.0000000002991
0 4 -120.0000000003253
0 4 -115.0000000003515
0 4 -110.0000000003778
0 4 -105.000000000404
0 4 -100.0000000004302
0 4 -95.00000000045642
0 4 -90.00000000048267
0 4 -85.00000000050892
0 4 -80.00000000053514
0 4 -75.00000000056137
0 4 -70.00000000057537
0 4 -65.00000000058384
0 4 -60.00000000059231
0 4 -55.00000000060078
0 4 -50.00000000060925
0 4 -45.00000000061769
0 4 -40.00000000062616
0 4 -35.0000000006346
0 4 -30.00000000064307
0 4 -25.00000000065151
0 4 -20.00000000066001
0 4 -15.00000000066848
0 4 -10.00000000067695
0 4 -5.000000000685446
0 4 -6.938876140338834e-10
0 4 4.999999999297643
0 4 9.999999999289201
0 4 14.9999999992807
0 4 19.99999999927223
0 4 24.99999999926379
0 4 29.99999999925532
0 4 34.99999999924688
0 4 39.99999999923841
0 4 44.99999999922991
0 4 49.99999999922147
0 4 54.99999999921968
0 4 59.99999999924228
0 4 64.99999999926933
0 4 69.99999999929639
0 4 74.99999999932345
0 4 79.99999999935056
0 4 84.99999999937762
0 4 89.99999999940468
0 4 94.99999999943174
0 4 99.99999999945879
0 4 104.9999999994859
0 4 109.9999999995129
0 4 114.99999999954
0 4 119.999999999567
0 4 124.9999999995941
0 4 129.9999999996211
0 4 134.9999999996482
0 4 139.9999999996753
0 4 144.9999999997024
0 4 149.9999999997294
0 4 154.9999999997564
0 4 159.9999999997835
0 4 164.9999999998106
0 4 169.9999999998377
0 4 174.9999999998647
0 4 179.9999999998918
0 4 184.9999999999189
0 4 189.9999999999459
0 4 194.9999999999729
1 16 0 79
175
176
177
178
179
180
181
182
183
184
185
186
187
188
189
190
191
192
193
194
195
196
197
198
199
200
201
202
203
204
205
206
207
208
209
210
211
212
213
214
215
216
217
218
219
220
221
222
223
224
225
226
227
228
229
230
231
232
233
234
235
236
237
238
239
240
241
242
243
244
245
246
247
248
249
250
251
252
253
-4 0 -195.0000000000085
-4 0 -190.0000000000169
-4 0 -185.0000000000254
-4 0 -180.0000000000339
-4 0 -175.0000000000423
-4 0 -170.0000000000508
-4 0 -165.0000000000593
-4 0 -160.0000000000677
-4 0 -155.0000000000762
-4 0 -150.0000000000902
-4 0 -145.0000000001286
-4 0 -140.0000000001726
-4 0 -135.0000000002166
-4 0 -130.0000000002606
-4 0 -125.0000000002991
-4 0 -120.0000000003253
-4 0 -115.0000000003515
-4 0 -110.0000000003778
-4 0 -105.000000000404
-4 0 -100.0000000004302
-4 0 -95.00000000045642
-4 0 -90.00000000048267
-4 0 -85.00000000050892
-4 0 -80.00000000053514
-4 0 -75.00000000056137
-4 0 -70.00000000057537
-4 0 -65.00000000058384
-4 0 -60.00000000059231
-4 0 -55.00000000060078
-4 0 -50.00000000060925
-4 0 -45.00000000061769
-4 0 -40.00000000062616
-4 0 -35.0000000006346
-4 0 -30.00000000064307
-4 0 -25.00000000065151
-4 0 -20.00000000066001
-4 0 -15.00000000066848
-4 0 -10.00000000067695
-4 0 -5.000000000685446
-4 0 -6.938876140338834e-10
-4 0 4.999999999297643
-4 0 9.999999999289201
-4 0 14.9999999992807
-4 0 19.99999999927223
-4 0 24.99999999926379
-4 0 29.99999999925532
-4 0 34.99999999924688
-4 0 39.99999999923841
-4 0 44.99999999922991
-4 0 49.99999999922147
-4 0 54.99999999921968
-4 0 59.99999999924228
-4 0 64.99999999926933
-4 0 69.99999999929639
-4 0 74.99999999932345
-4 0 79.99999999935056
-4 0 84.99999999937762
-4 0 89.99999999940468
-4 0 94.99999999943174
-4 0 99.99999999945879
-4 0 104.9999999994859
-4 0 109.9999999995129
-4 0 114.99999999954
-4 0 119.999999999567
-4 0 124.9999999995941
-4 0 129.9999999996211
-4 0 134.9999999996482
-4 0 139.9999999996753
-4 0 144.9999999997024
-4 0 149.9999999997294
-4 0 154.9999999997564
-4 0 159.9999999997835
-4 0 164.9999999998106
-4 0 169.9999999998377
-4 0 174.9999999998647
-4 0 179.9999999998918
-4 0 184.9999999999189
-4 0 189.9999999999459
-4 0 194.9999999999729
1 20 0 79
254
255
256
257
258
259
260
261
262
263
264
265
266
267
268
269
270
271
272
273
274
275
276
277
278
279
280
281
282
283
284
285
286
287
288
289
290
291
292
293
294
295
296
297
298
299
300
301
302
303
304
305
306
307
308
309
310
311
312
313
314
315
316
317
318
319
320
321
322
323
324
325
326
327
328
329
330
331
332
0 -4 -195.0000000000085
0 -4 -190.0000000000169
0 -4 -185.0000000000254
0 -4 -180.0000000000339
0 -4 -175.0000000000423
0 -4 -170.0000000000508
0 -4 -165.0000000000593
0 -4 -160.0000000000677
0 -4 -155.0000000000762
0 -4 -150.0000000000902
0 -4 -145.0000000001286
0 -4 -140.0000000001726
0 -4 -135.0000000002166
0 -4 -130.0000000002606
0 -4 -125.0000000002991
0 -4 -120.0000000003253
0 -4 -115.0000000003515
0 -4 -110.0000000003778
0 -4 -105.000000000404
0 -4 -100.0000000004302
0 -4 -95.00000000045642
0 -4 -90.00000000048267
0 -4 -85.00000000050892
0 -4 -80.00000000053514
0 -4 -75.00000000056137
0 -4 -70.00000000057537
0 -4 -65.00000000058384
0 -4 -60.00000000059231
0 -4 -55.00000000060078
0 -4 -50.00000000060925
0 -4 -45.00000000061769
0 -4 -40.00000000062616
0 -4 -35.0000000006346
0 -4 -30.00000000064307
0 -4 -25.00000000065151
0 -4 -20.00000000066001
0 -4 -15.00000000066848
0 -4 -10.00000000067695
0 -4 -5.000000000685446
0 -4 -6.938876140338834e-10
0 -4 4.999999999297643
0 -4 9.999999999289201
0 -4 14.9999999992807
0 -4 19.99999999927223
0 -4 24.99999999926379
0 -4 29.99999999925532
0 -4 34.99999999924688
0 -4 39.99999999923841
0 -4 44.99999999922991
0 -4 49.99999999922147
0 -4 54.99999999921968
0 -4 59.99999999924228
0 -4 64.99999999926933
0 -4 69.99999999929639
0 -4 74.99999999932345
0 -4 79.99999999935056
0 -4 84.99999999937762
0 -4 89.99999999940468
0 -4 94.99999999943174
0 -4 99.99999999945879
0 -4 104.9999999994859
0 -4 109.9999999995129
0 -4 114.99999999954
0 -4 119.999999999567
0 -4 124.9999999995941
0 -4 129.9999999996211
0 -4 134.9999999996482
0 -4 139.9999999996753
0 -4 144.9999999997024
0 -4 149.9999999997294
0 -4 154.9999999997564
0 -4 159.9999999997835
0 -4 164.9999999998106
0 -4 169.9999999998377
0 -4 174.9999999998647
0 -4 179.9999999998918
0 -4 184.9999999999189
0 -4 189.9999999999459
0 -4 194.9999999999729
2 1 0 4
333
334
335
336
1.075063268895292 0.4453057878192763 -200
-1.453110773830591 -0.6018981920889468 -200
-0.7609610348880851 1.790732060085275 -200
0.7281580790940324 -1.804319489304842 -200
2 13 0 80
337
338
339
340
341
342
343
344
345
346
347
348
349
350
351
352
353
354
355
356
357
358
359
360
361
362
363
364
365
366
367
368
369
370
371
372
373
374
375
376
377
378
379
380
381
382
383
384
385
386
387
388
389
390
391
392
393
394
395
396
397
398
399
400
401
402
403
404
405
406
407
408
409
410
411
412
413
414
415
416
2.766299457280716 2.889219152755363 -147.5000000001094
2.889219170571315 2.766299438673117 -127.5000000002798
2.766299457280702 2.889219152755377 -142.5000000001506
2.775846961634278 2.880047507522359 -137.7761719395056
2.828425085803699 2.828429163687212 -132.4244556866251
2.822421503214867 2.834420021484171 -152.5067710252929
2.889219170571306 2.766299438673126 -122.5000000003122
2.809841799716987 2.846891122007163 -72.80477185101827
2.766299457280778 2.889219152755304 -82.50000000052202
2.846891127303555 2.809841794350759 -97.80477188829333
2.775846961630628 2.880047507525876 -87.22382806575226
2.766299457280664 2.889219152755413 -117.5000000003384
2.889219170571323 2.766299438673109 -107.5000000003909
2.766299457280675 2.889219152755402 -112.5000000003647
2.82842712474619 2.82842712474619 -92.79151251660132
2.81950203655687 2.837324138312657 -77.52606461726029
2.837324140416825 2.819502034439402 -102.5260645344227
2.82555180184559 2.831299527617511 -157.3827962881169
2.825268656275375 2.83158207012757 -67.74203504496577
2.766299457280688 2.88921915275539 52.49999999922056
2.846891127295052 2.809841794359374 -2.804771877085756
2.889219170571325 2.766299438673106 7.499999999293436
2.846891127304646 2.809841794349654 -27.80477189947845
2.889219170571318 2.766299438673114 -182.5000000000296
2.775846961604911 2.880047507550663 47.77617193857404
2.766299457280688 2.88921915275539 -17.50000000066424
2.889219170571325 2.766299438673107 -12.50000000067271
2.766299457280688 2.88921915275539 17.49999999927647
2.889219170571312 2.76629943867312 37.49999999924265
2.82842712474619 2.82842712474619 -22.79151251678636
2.837324140411388 2.819502034444873 -7.52606453941371
2.76629945728069 2.889219152755387 12.49999999928494
2.828425085776763 2.828429163714148 42.42445568774693
2.809841799653591 2.846891122069734 -47.80477186162736
2.8098417996538 2.846891122069527 -37.80477188555679
2.822421503188466 2.83442002151046 22.50677102642612
2.766299457280688 2.88921915275539 32.49999999925112
2.766299457280689 2.889219152755389 -177.5000000000381
2.766299457280693 2.889219152755385 -172.5000000000466
2.7758469616343 2.880047507522336 -167.7761719393656
2.82842712474619 2.82842712474619 -162.2084875040414
2.82842712474619 2.82842712474619 2.208487503279997
2.766299457280685 2.889219152755393 -192.5000000000127
2.813973152573201 2.842807608086984 -197.0130996603537
2.829758412052109 2.8270952105333 -187.4704108326058
2.82691067424 2.829942762648734 -62.74816298562223
2.827698454508212 2.829155607309692 -57.7541439922185
2.82842712474619 2.82842712474619 -52.79151251673551
2.819345520801516 2.837479662365253 -42.79026741942366
2.828422409366495 2.828431840118024 -32.7890722484301
2.82842712474619 2.82842712474619 27.20848752334558
2.822421503153921 2.834420021544859 57.50677103560378
2.825551801724679 2.831299527738177 62.3827962496303
2.889219170571312 2.76629943867312 157.49999999977
2.766299457280688 2.88921915275539 147.4999999997159
2.846891127314675 2.809841794339493 182.8047718750112
2.766299457280688 2.88921915275539 192.4999999999594
2.813973152612312 2.84280760804827 197.0130996877338
2.889219170571323 2.766299438673109 152.4999999997429
2.824968197056968 2.831881827622174 187.5260646292564
2.809841799653441 2.846891122069882 77.19522817179103
2.822421503230344 2.834420021468759 142.4932289571138
2.831582070869533 2.825268655531755 177.6373327698258
2.827046432159289 2.829807143678776 67.31129197495682
2.82842712474619 2.82842712474619 72.20848748318252
2.809841799649794 2.846891122073482 87.19522812275574
2.809841799656083 2.846891122067274 102.1952281466256
2.775846961690231 2.880047507468429 117.7761719219104
2.766299457280688 2.88921915275539 122.4999999995806
2.766299457280688 2.88921915275539 127.4999999996076
2.775846961613765 2.880047507542129 132.2238280646485
2.82842712474619 2.82842712474619 137.7915125157896
2.766299457280688 2.88921915275539 162.4999999997971
2.766299457280688 2.88921915275539 167.4999999998241
2.819345520800749 2.837479662366014 82.2097325832089
2.825268656274842 2.831582070128102 92.25796496101083
2.82842712474619 2.82842712474619 97.20848752353419
2.825268656252327 2.831582070150567 107.257964945714
2.82842712474619 2.82842712474619 112.2084874833996
2.822892813712204 2.833950628061822 172.5705204431709
2 17 0 80
417
418
419
420
421
422
423
424
425
426
427
428
429
430
431
432
433
434
435
436
437
438
439
440
441
442
443
444
445
446
447
448
449
450
451
452
453
454
455
456
457
458
459
460
461
462
463
464
465
466
467
468
469
470
471
472
473
474
475
476
477
478
479
480
481
482
483
484
485
486
487
488
489
490
491
492
493
494
495
496
-2.889219152755365 2.766299457280714 -147.5000000001094
-2.766299438673117 2.889219170571315 -127.5000000002798
-2.889219152755377 2.766299457280702 -142.5000000001506
-2.880047507522359 2.775846961634278 -137.7761719395056
-2.828429163687212 2.828425085803699 -132.4244556866251
-2.834420021484184 2.822421503214855 -152.5067710252909
-2.76629943867313 2.889219170571303 -122.5000000003122
-2.846891122007163 2.809841799716987 -72.80477185101827
-2.889219152755303 2.766299457280779 -82.50000000052202
-2.809841794350759 2.846891127303555 -97.80477188829333
-2.880047507525876 2.775846961630628 -87.22382806575226
-2.766299438673143 2.88921917057129 -117.5000000003384
-2.80984179435689 2.846891127297504 -107.8047718948692
-2.819502034447648 2.837324140408631 -112.5260645354333
-2.82842712474619 2.82842712474619 -92.79151251660132
-2.837324138312652 2.819502036556875 -77.52606461725931
-2.819345518419348 2.837479664732196 -102.790267433367
-2.831299527628144 2.825551801834935 -157.3827962715192
-2.83158207012757 2.825268656275375 -67.74203504496577
-2.88921915275539 2.766299457280688 52.49999999922056
-2.76629943867312 2.889219170571312 -2.500000000689681
-2.881797620036192 2.77403000653449 7.499999999307505
-2.809841794349654 2.846891127304646 -27.80477189947845
-2.766299438673115 2.889219170571317 -182.5000000000296
-2.880047507550663 2.775846961604911 47.77617193857404
-2.889219152755407 2.76629945728067 -12.50000000067271
-2.880047507537961 2.775846961618089 -17.22382806601277
-2.88921915275539 2.766299457280688 17.49999999927647
-2.76629943867312 2.889219170571312 37.49999999924265
-2.82842712474619 2.82842712474619 -22.79151251678636
-2.82709521053381 2.8297584120516 -7.470410833276048
-2.889219152755387 2.76629945728069 12.49999999928494
-2.828429163714148 2.828425085776763 42.42445568774693
-2.846891122069735 2.80984179965359 -47.80477186162739
-2.846891122069527 2.8098417996538 -37.80477188555679
-2.83442002151046 2.822421503188466 22.50677102642612
-2.88921915275539 2.766299457280688 32.49999999925112
-2.829758406907682 2.827095215682573 -187.5295897169416
-2.889219152755389 2.766299457280689 -177.5000000000381
-2.889219152755385 2.766299457280692 -172.5000000000466
-2.880047507522337 2.7758469616343 -167.7761719393656
-2.82842712474619 2.82842712474619 -162.2084875040414
-2.889219152755393 2.766299457280684 2.499999999301878
-2.829942762648734 2.82691067424 -62.74816298562223
-2.829155607309692 2.827698454508212 -57.7541439922185
-2.82842712474619 2.82842712474619 -52.79151251673551
-2.837479662365253 2.819345520801516 -42.79026741942383
-2.828431840118024 2.828422409366495 -32.7890722484301
-2.82842712474619 2.82842712474619 27.20848752334558
-2.889219152755385 2.766299457280692 -192.5000000000127
-2.842807608086954 2.813973152573232 -197.0130996603572
-2.834420021544859 2.822421503153921 57.50677103560378
-2.831299527738177 2.825551801724679 62.3827962496303
-2.76629943867312 2.889219170571312 157.49999999977
-2.88921915275539 2.766299457280688 147.4999999997159
-2.766299438673103 2.889219170571328 182.4999999999054
-2.88921915275539 2.766299457280688 192.4999999999594
-2.84280760804827 2.813973152612312 197.0130996877338
-2.766299438673109 2.889219170571323 152.4999999997429
-2.827095210239705 2.829758412345428 187.4704108085417
-2.846891122069882 2.809841799653441 77.19522817179103
-2.88921915275539 2.766299457280688 142.4999999996888
-2.88921915275539 2.766299457280688 177.4999999998782
-2.829807143678776 2.827046432159289 67.31129197495682
-2.82842712474619 2.82842712474619 72.20848748318252
-2.82842712474619 2.82842712474619 82.20848752345319
-2.846891122073482 2.809841799649794 87.19522812275574
-2.831582070128102 2.825268656274842 92.25796496101083
-2.82842712474619 2.82842712474619 97.20848752353419
-2.846891122067274 2.809841799656083 102.1952281466256
-2.831582070150567 2.825268656252327 107.257964945714
-2.82842712474619 2.82842712474619 112.2084874833996
-2.880047507468429 2.775846961690231 117.7761719219104
-2.88921915275539 2.766299457280688 122.4999999995806
-2.88921915275539 2.766299457280688 127.4999999996076
-2.88921915275539 2.766299457280688 132.4999999996347
-2.88921915275539 2.766299457280688 137.4999999996617
-2.88921915275539 2.766299457280688 162.4999999997971
-2.88921915275539 2.766299457280688 167.4999999998241
-2.869538889534783 2.786708912220199 172.5295893997505
2 21 0 80
497
498
499
500
501
502
503
504
505
506
507
508
509
510
511
512
513
514
515
516
517
518
519
520
521
522
523
524
525
526
527
528
529
530
531
532
533
534
535
536
537
538
539
540
541
542
543
544
545
546
547
548
549
550
551
552
553
554
555
556
557
558
559
560
561
562
563
564
565
566
567
568
569
570
571
572
573
574
575
576
-2.766299457280716 -2.889219152755363 -147.5000000001094
-2.889219170571315 -2.766299438673117 -127.5000000002798
-2.766299457280702 -2.889219152755377 -142.5000000001506
-2.775846961634278 -2.880047507522359 -137.7761719395056
-2.828425085803699 -2.828429163687212 -132.4244556866251
-2.822421503214867 -2.834420021484171 -152.5067710252929
-2.889219170571306 -2.766299438673126 -122.5000000003122
-2.809841799716987 -2.846891122007163 -72.80477185101827
-2.766299457280778 -2.889219152755304 -82.50000000052202
-2.889219170571319 -2.766299438673113 -97.50000000044332
-2.775846961630628 -2.880047507525876 -87.22382806575226
-2.766299457280664 -2.889219152755413 -117.5000000003384
-2.766299457280698 -2.88921915275538 -107.5000000003909
-2.786708912201609 -2.869538889552836 -112.5295894273043
-2.828425085728851 -2.828429163762059 -92.57554432273108
-2.81950203655687 -2.837324138312657 -77.52606461726029
-2.889219170571312 -2.766299438673121 -102.5000000004171
-2.82555180184559 -2.831299527617511 -157.3827962881169
-2.825268656275375 -2.83158207012757 -67.74203504496577
-2.889219170571312 -2.76629943867312 52.49999999922056
-2.846891127295052 -2.809841794359374 -2.804771877085756
-2.889219170571325 -2.766299438673106 7.499999999293436
-2.846891127304646 -2.809841794349654 -27.80477189947845
-2.774030006392012 -2.881797620173342 -182.4999999837037
-2.766299457280688 -2.88921915275539 47.49999999922571
-2.809841799654979 -2.846891122068365 37.80477186335514
-2.766299457280688 -2.88921915275539 -17.50000000066424
-2.889219170571325 -2.766299438673107 -12.50000000067271
-2.889219170571312 -2.76629943867312 17.49999999927647
-2.82842712474619 -2.82842712474619 -22.79151251678636
-2.837324140411388 -2.819502034444873 -7.52606453941371
-2.881797636130103 -2.77402998981535 12.49999999928519
-2.819502036529892 -2.837324138339465 42.52606460518598
-2.809841799653591 -2.846891122069734 -47.80477186162736
-2.8098417996538 -2.846891122069527 -37.80477188555679
-2.82842712474619 -2.82842712474619 22.20848750324689
-2.825268656252309 -2.831582070150584 32.74203503916846
-2.766299457280689 -2.889219152755389 -177.5000000000381
-2.766299457280693 -2.889219152755385 -172.5000000000466
-2.7758469616343 -2.880047507522336 -167.7761719393656
-2.82842712474619 -2.82842712474619 -162.2084875040414
-2.82842712474619 -2.82842712474619 2.208487503279997
-2.82842712474619 -2.82842712474619 27.79151249528158
-2.766299457280685 -2.889219152755393 -192.5000000000127
-2.813973152573201 -2.842807608086984 -197.0130996603537
-2.82691067424 -2.829942762648734 -62.74816298562223
-2.827698454508212 -2.829155607309692 -57.7541439922185
-2.82842712474619 -2.82842712474619 -52.79151251673551
-2.819345520801516 -2.837479662365253 -42.79026741942366
-2.828422409366495 -2.828431840118024 -32.7890722484301
-2.766299457280683 -2.889219152755394 -187.5000000000212
-2.869538900890593 -2.786708900526857 57.52958946332302
-2.889219170571312 -2.76629943867312 62.49999999925581
-2.889219170571312 -2.76629943867312 157.49999999977
-2.766299457280688 -2.88921915275539 147.4999999997159
-2.846891127314675 -2.809841794339493 182.8047718750112
-2.766299457280688 -2.88921915275539 192.4999999999594
-2.813973152612312 -2.84280760804827 197.0130996877338
-2.889219170571323 -2.766299438673109 152.4999999997429
-2.824968197056968 -2.831881827622174 187.5260646292564
-2.809841799653441 -2.846891122069882 77.19522817179103
-2.822421503230344 -2.834420021468759 142.4932289571138
-2.831582070869533 -2.825268655531755 177.6373327698258
-2.766299457280688 -2.88921915275539 67.49999999928286
-2.809841799649794 -2.846891122073482 87.19522812275574
-2.809841799656083 -2.846891122067274 102.1952281466256
-2.775846961690231 -2.880047507468429 117.7761719219104
-2.766299457280688 -2.88921915275539 122.4999999995806
-2.766299457280688 -2.88921915275539 127.4999999996076
-2.775846961613765 -2.880047507542129 132.2238280646485
-2.82842712474619 -2.82842712474619 137.7915125157896
-2.766299457280688 -2.88921915275539 162.4999999997971
-2.766299457280688 -2.88921915275539 167.4999999998241
-2.81950203657401 -2.837324138295625 72.4739353943051
-2.819345520800749 -2.837479662366014 82.2097325832089
-2.825268656274842 -2.831582070128102 92.25796496101083
-2.82842712474619 -2.82842712474619 97.20848752353419
-2.825268656252327 -2.831582070150567 107.257964945714
-2.82842712474619 -2.82842712474619 112.2084874833996
-2.822892813712204 -2.833950628061822 172.5705204431709
2 25 0 80
577
578
579
580
581
582
583
584
585
586
587
588
589
590
591
592
593
594
595
596
597
598
599
600
601
602
603
604
605
606
607
608
609
610
611
612
613
614
615
616
617
618
619
620
621
622
623
624
625
626
627
628
629
630
631
632
633
634
635
636
637
638
639
640
641
642
643
644
645
646
647
648
649
650
651
652
653
654
655
656
2.766299438673091 -2.88921917057134 -147.5000000001094
2.829817812826211 -2.827035752552748 -127.5000000155711
2.766299438673106 -2.889219170571326 -142.5000000001506
2.775846945249608 -2.880047523314229 -137.7761720664883
2.82842712474619 -2.82842712474619 -132.2084875042142
2.822421502190524 -2.834420022504179 -152.506771123466
2.82842712474619 -2.82842712474619 -122.7915125063896
2.809841794288451 -2.846891127365052 -72.80477188882817
2.889219152755303 -2.766299457280779 -82.50000000052202
2.880047507525811 -2.775846961630695 -87.22382806575295
2.846891122128338 -2.809841799594214 -117.8047718629345
2.880047507542191 -2.7758469616137 -107.2238280633368
2.889219152755388 -2.76629945728069 -97.50000000044332
2.82842712474619 -2.82842712474619 -112.791512506442
2.842283089573753 -2.814502947009131 -92.57554443247109
2.831881827693815 -2.824968196985151 -77.52606464244636
2.889219152755403 -2.766299457280673 -102.5000000004171
2.82842712474619 -2.82842712474619 -157.2084874839415
2.825268655517037 -2.831582070884218 -67.74203501729548
2.76629943867312 -2.889219170571312 52.49999999922056
2.829735949841324 -2.82711769372547 -27.49999999715891
2.8800475075734 -2.77584696158132 -2.22382805976298
2.889219152755408 -2.766299457280669 7.499999999293436
2.889219152755394 -2.766299457280683 -182.5000000000296
2.775846945234929 -2.880047523328376 47.7761720716654
2.76629943867312 -2.889219170571312 -17.50000000066424
2.889219152755407 -2.76629945728067 -12.50000000067271
2.809841794350833 -2.846891127303483 17.19522812125942
2.889219152755421 -2.766299457280655 37.49999999924265
2.822618174617565 -2.834224169030849 -22.55052215051163
2.842283089581203 -2.814502947001607 -7.575544431807799
2.831881827705796 -2.824968196973141 12.4739353744132
2.828425083718268 -2.828429165772639 42.42445552338054
2.809841794349654 -2.846891127304646 -47.80477189944452
2.809841794349654 -2.846891127304646 -37.80477189946129
2.825268655533732 -2.83158207086756 22.25796498521552
2.76629943867312 -2.889219170571312 32.49999999925112
2.889219152755393 -2.766299457280684 2.499999999301878
2.827095210529407 -2.829758412055999 -177.4704108226496
2.82691067409798 -2.829942762790601 -62.74816295335791
2.827698454699878 -2.829155607118123 -57.75414397653094
2.8193455184175 -2.837479664734033 -42.7902674421091
2.82550359147181 -2.831347639301805 -32.68990707318656
2.82842712474619 -2.82842712474619 27.20848752334558
2.766299438673114 -2.889219170571318 -172.5000000000466
2.766299438673121 -2.889219170571311 -167.500000000055
2.775846945259905 -2.880047523304304 -162.7761720617315
2.82842712474619 -2.82842712474619 -52.79151251673551
2.766299438673123 -2.88921917057131 -192.5000000000127
2.813973156479102 -2.842807604220701 -197.0130999151289
2.766299438673127 -2.889219170571306 -187.5000000000212
2.8224215021296 -2.834420022564844 57.50677113377947
2.825551801595863 -2.831299527866731 62.38279630247746
2.76629943867312 -2.889219170571312 157.49999999977
2.889219152755391 -2.766299457280687 147.4999999997159
2.76629943867312 -2.889219170571312 192.4999999999594
2.813973156449076 -2.842807604250422 197.013099934285
2.88921915275539 -2.766299457280688 182.4999999999054
2.889219152755394 -2.766299457280683 152.499999999743
2.889219152755388 -2.76629945728069 187.4999999999324
2.846891122069882 -2.809841799653441 77.19522817179103
2.880047507468429 -2.775846961690231 142.7761719222733
2.880047507561948 -2.775846961593202 177.7761719439964
2.827046432454098 -2.829807143384255 67.31129200071814
2.82842712474619 -2.82842712474619 72.20848748318258
2.831582070150854 -2.82526865625204 82.25796497502751
2.829942762714207 -2.826910674174457 87.25183706504799
2.829155607384264 -2.827698454433601 92.2458560862014
2.828777293504893 -2.828076912630053 97.24228148493381
2.828595444810641 -2.828258794664395 102.2404019069897
2.828508032681137 -2.828346214496784 107.2394612767421
2.828466015351111 -2.828388233606519 112.2390005276162
2.828445818604052 -2.828408430764775 117.238777107564
2.828436110548938 -2.828418138914895 122.2386692771466
2.828431444149423 -2.828422805336361 127.2386173052235
2.828429201140231 -2.828425048350625 132.238592279642
2.82842712474619 -2.82842712474619 137.2084874835335
2.822421502157515 -2.834420022537048 162.5067711384207
2.825551801628744 -2.831299527833917 167.3827963568016
2.82842712474619 -2.82842712474619 172.208487523941
2 26 0 4
657
658
659
660
1.075063268895292 0.4453057878192763 200
-1.453110773830591 -0.6018981920889468 200
-0.7609610348880851 1.790732060085275 200
0.7281580790940324 -1.804319489304842 200
3 1 0 2
661
662
-0.220988510313576 -0.001126450473682539 -196.3438279898691
-0.2209885103146618 -0.001126450471059526 196.3438279837355
$EndNodes
$Elements
7 3171 1 3171
2 1 2 14
1 1 9 333 
2 12 1 336 
3 1 333 336 
4 9 2 335 
5 2 10 335 
6 10 3 335 
7 3 11 334 
8 3 334 335 
9 11 4 336 
10 4 12 336 
11 333 9 335 
12 334 11 336 
13 334 333 335 
14 333 334 336 
2 13 2 322
15 9 380 1 
16 1 380 17 
17 2 380 9 
18 96 380 2 
19 5 394 13 
20 95 394 5 
21 13 394 6 
22 6 394 174 
23 17 379 18 
24 17 380 379 
25 18 381 19 
26 379 381 18 
27 19 360 20 
28 19 381 360 
29 20 374 21 
30 360 374 20 
31 21 375 22 
32 374 375 21 
33 22 376 23 
34 375 376 22 
35 23 377 24 
36 376 377 23 
37 24 354 25 
38 24 377 354 
39 25 342 26 
40 25 354 342 
41 26 337 27 
42 26 342 337 
43 27 339 28 
44 337 339 27 
45 28 340 29 
46 339 340 28 
47 29 341 30 
48 340 341 29 
49 30 338 31 
50 30 341 338 
51 31 343 32 
52 338 343 31 
53 32 348 33 
54 343 348 32 
55 33 350 34 
56 348 350 33 
57 34 349 35 
58 34 350 349 
59 35 353 36 
60 349 353 35 
61 36 346 37 
62 36 353 346 
63 37 351 38 
64 346 351 37 
65 38 347 39 
66 38 351 347 
67 39 345 40 
68 39 347 345 
69 40 352 41 
70 345 352 40 
71 41 344 42 
72 41 352 344 
73 42 355 43 
74 344 355 42 
75 43 382 44 
76 355 382 43 
77 44 383 45 
78 382 383 44 
79 45 384 46 
80 383 384 45 
81 46 370 47 
82 46 384 370 
83 47 385 48 
84 370 385 47 
85 48 371 49 
86 48 385 371 
87 49 386 50 
88 371 386 49 
89 50 359 51 
90 50 386 359 
91 51 366 52 
92 359 366 51 
93 52 362 53 
94 52 366 362 
95 53 363 54 
96 362 363 53 
97 54 367 55 
98 363 367 54 
99 55 357 56 
100 55 367 357 
101 56 378 57 
102 357 378 56 
103 57 358 58 
104 57 378 358 
105 58 368 59 
106 358 368 58 
107 59 364 60 
108 59 368 364 
109 60 372 61 
110 364 372 60 
111 61 387 62 
112 372 387 61 
113 62 373 63 
114 62 387 373 
115 63 365 64 
116 63 373 365 
117 64 369 65 
118 365 369 64 
119 65 361 66 
120 65 369 361 
121 66 356 67 
122 66 361 356 
123 67 388 68 
124 356 388 67 
125 68 389 69 
126 388 389 68 
127 69 400 70 
128 389 400 69 
129 70 401 71 
130 400 401 70 
131 71 397 72 
132 71 401 397 
133 72 411 73 
134 397 411 72 
135 73 402 74 
136 73 411 402 
137 74 412 75 
138 402 412 74 
139 75 413 76 
140 412 413 75 
141 76 403 77 
142 76 413 403 
143 77 414 78 
144 403 414 77 
145 78 415 79 
146 414 415 78 
147 79 404 80 
148 79 415 404 
149 80 405 81 
150 404 405 80 
151 81 406 82 
152 405 406 81 
153 82 407 83 
154 406 407 82 
155 83 408 84 
156 407 408 83 
157 84 398 85 
158 84 408 398 
159 85 391 86 
160 85 398 391 
161 86 395 87 
162 391 395 86 
163 87 390 88 
164 87 395 390 
165 88 409 89 
166 390 409 88 
167 89 410 90 
168 409 410 89 
169 90 416 91 
170 410 416 90 
171 91 399 92 
172 91 416 399 
173 92 392 93 
174 92 399 392 
175 93 396 94 
176 392 396 93 
177 94 393 95 
178 94 396 393 
179 393 394 95 
180 97 379 96 
181 379 380 96 
182 98 381 97 
183 97 381 379 
184 99 360 98 
185 360 381 98 
186 100 374 99 
187 99 374 360 
188 101 375 100 
189 100 375 374 
190 102 376 101 
191 101 376 375 
192 103 377 102 
193 102 377 376 
194 104 354 103 
195 354 377 103 
196 105 342 104 
197 342 354 104 
198 106 337 105 
199 337 342 105 
200 107 339 106 
201 106 339 337 
202 108 340 107 
203 107 340 339 
204 109 341 108 
205 108 341 340 
206 110 338 109 
207 338 341 109 
208 111 343 110 
209 110 343 338 
210 112 348 111 
211 111 348 343 
212 113 350 112 
213 112 350 348 
214 114 349 113 
215 349 350 113 
216 115 353 114 
217 114 353 349 
218 116 346 115 
219 346 353 115 
220 117 351 116 
221 116 351 346 
222 118 347 117 
223 347 351 117 
224 119 345 118 
225 345 347 118 
226 120 352 119 
227 119 352 345 
228 121 344 120 
229 344 352 120 
230 122 355 121 
231 121 355 344 
232 123 382 122 
233 122 382 355 
234 124 383 123 
235 123 383 382 
236 125 384 124 
237 124 384 383 
238 126 370 125 
239 370 384 125 
240 127 385 126 
241 126 385 370 
242 128 371 127 
243 371 385 127 
244 129 386 128 
245 128 386 371 
246 130 359 129 
247 359 386 129 
248 131 366 130 
249 130 366 359 
250 132 362 131 
251 362 366 131 
252 133 363 132 
253 132 363 362 
254 134 367 133 
255 133 367 363 
256 135 357 134 
257 357 367 134 
258 136 378 135 
259 135 378 357 
260 137 358 136 
261 358 378 136 
262 138 368 137 
263 137 368 358 
264 139 364 138 
265 364 368 138 
266 140 372 139 
267 139 372 364 
268 141 387 140 
269 140 387 372 
270 142 373 141 
271 373 387 141 
272 143 365 142 
273 365 373 142 
274 144 369 143 
275 143 369 365 
276 145 361 144 
277 361 369 144 
278 146 356 145 
279 356 361 145 
280 147 388 146 
281 146 388 356 
282 148 389 147 
283 147 389 388 
284 149 400 148 
285 148 400 389 
286 150 401 149 
287 149 401 400 
288 151 397 150 
289 397 401 150 
290 152 411 151 
291 151 411 397 
292 153 402 152 
293 402 411 152 
294 154 412 153 
295 153 412 402 
296 155 413 154 
297 154 413 412 
298 156 403 155 
299 403 413 155 
300 157 414 156 
301 156 414 403 
302 158 415 157 
303 157 415 414 
304 159 404 158 
305 404 415 158 
306 160 405 159 
307 159 405 404 
308 161 406 160 
309 160 406 405 
310 162 407 161 
311 161 407 406 
312 163 408 162 
313 162 408 407 
314 164 398 163 
315 398 408 163 
316 165 391 164 
317 391 398 164 
318 166 395 165 
319 165 395 391 
320 167 390 166 
321 390 395 166 
322 168 409 167 
323 167 409 390 
324 169 410 168 
325 168 410 409 
326 170 416 169 
327 169 416 410 
328 171 399 170 
329 399 416 170 
330 172 392 171 
331 392 399 171 
332 173 396 172 
333 172 396 392 
334 174 393 173 
335 393 396 173 
336 174 394 393 
2 17 2 322
337 10 467 2 
338 2 467 96 
339 3 467 10 
340 175 467 3 
341 6 474 14 
342 174 474 6 
343 14 474 7 
344 7 474 253 
345 96 466 97 
346 96 467 466 
347 97 454 98 
348 97 466 454 
349 98 440 99 
350 98 454 440 
351 99 455 100 
352 440 455 99 
353 100 456 101 
354 455 456 100 
355 101 457 102 
356 456 457 101 
357 102 458 103 
358 457 458 102 
359 103 434 104 
360 103 458 434 
361 104 422 105 
362 104 434 422 
363 105 417 106 
364 105 422 417 
365 106 419 107 
366 417 419 106 
367 107 420 108 
368 419 420 107 
369 108 421 109 
370 420 421 108 
371 109 418 110 
372 109 421 418 
373 110 423 111 
374 418 423 110 
375 111 428 112 
376 423 428 111 
377 112 430 113 
378 428 430 112 
379 113 429 114 
380 113 430 429 
381 114 433 115 
382 429 433 114 
383 115 426 116 
384 115 433 426 
385 116 431 117 
386 426 431 116 
387 117 427 118 
388 117 431 427 
389 118 425 119 
390 118 427 425 
391 119 432 120 
392 425 432 119 
393 120 424 121 
394 120 432 424 
395 121 435 122 
396 424 435 121 
397 122 460 123 
398 435 460 122 
399 123 461 124 
400 460 461 123 
401 124 462 125 
402 461 462 124 
403 125 450 126 
404 125 462 450 
405 126 463 127 
406 450 463 126 
407 127 451 128 
408 127 463 451 
409 128 464 129 
410 451 464 128 
411 129 439 130 
412 129 464 439 
413 130 446 131 
414 439 446 130 
415 131 443 132 
416 131 446 443 
417 132 442 133 
418 132 443 442 
419 133 447 134 
420 442 447 133 
421 134 437 135 
422 134 447 437 
423 135 459 136 
424 437 459 135 
425 136 438 137 
426 136 459 438 
427 137 448 138 
428 438 448 137 
429 138 444 139 
430 138 448 444 
431 139 452 140 
432 444 452 139 
433 140 465 141 
434 452 465 140 
435 141 453 142 
436 141 465 453 
437 142 445 143 
438 142 453 445 
439 143 449 144 
440 445 449 143 
441 144 441 145 
442 144 449 441 
443 145 436 146 
444 145 441 436 
445 146 468 147 
446 436 468 146 
447 147 469 148 
448 468 469 147 
449 148 480 149 
450 469 480 148 
451 149 481 150 
452 480 481 149 
453 150 477 151 
454 150 481 477 
455 151 482 152 
456 477 482 151 
457 152 483 153 
458 482 483 152 
459 153 484 154 
460 483 484 153 
461 154 485 155 
462 484 485 154 
463 155 486 156 
464 485 486 155 
465 156 487 157 
466 486 487 156 
467 157 488 158 
468 487 488 157 
469 158 489 159 
470 488 489 158 
471 159 490 160 
472 489 490 159 
473 160 491 161 
474 490 491 160 
475 161 492 162 
476 491 492 161 
477 162 493 163 
478 492 493 162 
479 163 478 164 
480 163 493 478 
481 164 471 165 
482 164 478 471 
483 165 475 166 
484 471 475 165 
485 166 470 167 
486 166 475 470 
487 167 494 168 
488 470 494 167 
489 168 495 169 
490 494 495 168 
491 169 496 170 
492 495 496 169 
493 170 479 171 
494 170 496 479 
495 171 472 172 
496 171 479 472 
497 172 476 173 
498 472 476 172 
499 173 473 174 
500 173 476 473 
501 473 474 174 
502 176 466 175 
503 466 467 175 
504 177 454 176 
505 454 466 176 
506 178 440 177 
507 440 454 177 
508 179 455 178 
509 178 455 440 
510 180 456 179 
511 179 456 455 
512 181 457 180 
513 180 457 456 
514 182 458 181 
515 181 458 457 
516 183 434 182 
517 434 458 182 
518 184 422 183 
519 422 434 183 
520 185 417 184 
521 417 422 184 
522 186 419 185 
523 185 419 417 
524 187 420 186 
525 186 420 419 
526 188 421 187 
527 187 421 420 
528 189 418 188 
529 418 421 188 
530 190 423 189 
531 189 423 418 
532 191 428 190 
533 190 428 423 
534 192 430 191 
535 191 430 428 
536 193 429 192 
537 429 430 192 
538 194 433 193 
539 193 433 429 
540 195 426 194 
541 426 433 194 
542 196 431 195 
543 195 431 426 
544 197 427 196 
545 427 431 196 
546 198 425 197 
547 425 427 197 
548 199 432 198 
549 198 432 425 
550 200 424 199 
551 424 432 199 
552 201 435 200 
553 200 435 424 
554 202 460 201 
555 201 460 435 
556 203 461 202 
557 202 461 460 
558 204 462 203 
559 203 462 461 
560 205 450 204 
561 450 462 204 
562 206 463 205 
563 205 463 450 
564 207 451 206 
565 451 463 206 
566 208 464 207 
567 207 464 451 
568 209 439 208 
569 439 464 208 
570 210 446 209 
571 209 446 439 
572 211 443 210 
573 443 446 210 
574 212 442 211 
575 442 443 211 
576 213 447 212 
577 212 447 442 
578 214 437 213 
579 437 447 213 
580 215 459 214 
581 214 459 437 
582 216 438 215 
583 438 459 215 
584 217 448 216 
585 216 448 438 
586 218 444 217 
587 444 448 217 
588 219 452 218 
589 218 452 444 
590 220 465 219 
591 219 465 452 
592 221 453 220 
593 453 465 220 
594 222 445 221 
595 445 453 221 
596 223 449 222 
597 222 449 445 
598 224 441 223 
599 441 449 223 
600 225 436 224 
601 436 441 224 
602 226 468 225 
603 225 468 436 
604 227 469 226 
605 226 469 468 
606 228 480 227 
607 227 480 469 
608 229 481 228 
609 228 481 480 
610 230 477 229 
611 477 481 229 
612 231 482 230 
613 230 482 477 
614 232 483 231 
615 231 483 482 
616 233 484 232 
617 232 484 483 
618 234 485 233 
619 233 485 484 
620 235 486 234 
621 234 486 485 
622 236 487 235 
623 235 487 486 
624 237 488 236 
625 236 488 487 
626 238 489 237 
627 237 489 488 
628 239 490 238 
629 238 490 489 
630 240 491 239 
631 239 491 490 
632 241 492 240 
633 240 492 491 
634 242 493 241 
635 241 493 492 
636 243 478 242 
637 478 493 242 
638 244 471 243 
639 471 478 243 
640 245 475 244 
641 244 475 471 
642 246 470 245 
643 470 475 245 
644 247 494 246 
645 246 494 470 
646 248 495 247 
647 247 495 494 
648 249 496 248 
649 248 496 495 
650 250 479 249 
651 479 496 249 
652 251 472 250 
653 472 479 250 
654 252 476 251 
655 251 476 472 
656 253 473 252 
657 473 476 252 
658 253 474 473 
2 21 2 322
659 11 541 3 
660 3 541 175 
661 4 541 11 
662 254 541 4 
663 7 554 15 
664 253 554 7 
665 15 554 8 
666 8 554 332 
667 175 540 176 
668 175 541 540 
669 176 547 177 
670 540 547 176 
671 177 520 178 
672 177 547 520 
673 178 534 179 
674 520 534 178 
675 179 535 180 
676 534 535 179 
677 180 536 181 
678 535 536 180 
679 181 537 182 
680 536 537 181 
681 182 514 183 
682 182 537 514 
683 183 502 184 
684 183 514 502 
685 184 497 185 
686 184 502 497 
687 185 499 186 
688 497 499 185 
689 186 500 187 
690 499 500 186 
691 187 501 188 
692 500 501 187 
693 188 498 189 
694 188 501 498 
695 189 503 190 
696 498 503 189 
697 190 508 191 
698 503 508 190 
699 191 510 192 
700 508 510 191 
701 192 509 193 
702 192 510 509 
703 193 513 194 
704 509 513 193 
705 194 506 195 
706 194 513 506 
707 195 511 196 
708 506 511 195 
709 196 507 197 
710 196 511 507 
711 197 505 198 
712 197 507 505 
713 198 512 199 
714 505 512 198 
715 199 504 200 
716 199 512 504 
717 200 515 201 
718 504 515 200 
719 201 542 202 
720 515 542 201 
721 202 543 203 
722 542 543 202 
723 203 544 204 
724 543 544 203 
725 204 530 205 
726 204 544 530 
727 205 545 206 
728 530 545 205 
729 206 531 207 
730 206 545 531 
731 207 546 208 
732 531 546 207 
733 208 519 209 
734 208 546 519 
735 209 526 210 
736 519 526 209 
737 210 523 211 
738 210 526 523 
739 211 524 212 
740 523 524 211 
741 212 527 213 
742 524 527 212 
743 213 517 214 
744 213 527 517 
745 214 538 215 
746 517 538 214 
747 215 518 216 
748 215 538 518 
749 216 528 217 
750 518 528 216 
751 217 525 218 
752 217 528 525 
753 218 532 219 
754 525 532 218 
755 219 539 220 
756 532 539 219 
757 220 533 221 
758 220 539 533 
759 221 522 222 
760 221 533 522 
761 222 529 223 
762 522 529 222 
763 223 521 224 
764 223 529 521 
765 224 516 225 
766 224 521 516 
767 225 548 226 
768 516 548 225 
769 226 549 227 
770 548 549 226 
771 227 560 228 
772 549 560 227 
773 228 570 229 
774 560 570 228 
775 229 557 230 
776 229 570 557 
777 230 571 231 
778 557 571 230 
779 231 561 232 
780 231 571 561 
781 232 572 233 
782 561 572 232 
783 233 573 234 
784 572 573 233 
785 234 562 235 
786 234 573 562 
787 235 574 236 
788 562 574 235 
789 236 575 237 
790 574 575 236 
791 237 563 238 
792 237 575 563 
793 238 564 239 
794 563 564 238 
795 239 565 240 
796 564 565 239 
797 240 566 241 
798 565 566 240 
799 241 567 242 
800 566 567 241 
801 242 558 243 
802 242 567 558 
803 243 551 244 
804 243 558 551 
805 244 555 245 
806 551 555 244 
807 245 550 246 
808 245 555 550 
809 246 568 247 
810 550 568 246 
811 247 569 248 
812 568 569 247 
813 248 576 249 
814 569 576 248 
815 249 559 250 
816 249 576 559 
817 250 552 251 
818 250 559 552 
819 251 556 252 
820 552 556 251 
821 252 553 253 
822 252 556 553 
823 553 554 253 
824 255 540 254 
825 540 541 254 
826 256 547 255 
827 255 547 540 
828 257 520 256 
829 520 547 256 
830 258 534 257 
831 257 534 520 
832 259 535 258 
833 258 535 534 
834 260 536 259 
835 259 536 535 
836 261 537 260 
837 260 537 536 
838 262 514 261 
839 514 537 261 
840 263 502 262 
841 502 514 262 
842 264 497 263 
843 497 502 263 
844 265 499 264 
845 264 499 497 
846 266 500 265 
847 265 500 499 
848 267 501 266 
849 266 501 500 
850 268 498 267 
851 498 501 267 
852 269 503 268 
853 268 503 498 
854 270 508 269 
855 269 508 503 
856 271 510 270 
857 270 510 508 
858 272 509 271 
859 509 510 271 
860 273 513 272 
861 272 513 509 
862 274 506 273 
863 506 513 273 
864 275 511 274 
865 274 511 506 
866 276 507 275 
867 507 511 275 
868 277 505 276 
869 505 507 276 
870 278 512 277 
871 277 512 505 
872 279 504 278 
873 504 512 278 
874 280 515 279 
875 279 515 504 
876 281 542 280 
877 280 542 515 
878 282 543 281 
879 281 543 542 
880 283 544 282 
881 282 544 543 
882 284 530 283 
883 530 544 283 
884 285 545 284 
885 284 545 530 
886 286 531 285 
887 531 545 285 
888 287 546 286 
889 286 546 531 
890 288 519 287 
891 519 546 287 
892 289 526 288 
893 288 526 519 
894 290 523 289 
895 523 526 289 
896 291 524 290 
897 290 524 523 
898 292 527 291 
899 291 527 524 
900 293 517 292 
901 517 527 292 
902 294 538 293 
903 293 538 517 
904 295 518 294 
905 518 538 294 
906 296 528 295 
907 295 528 518 
908 297 525 296 
909 525 528 296 
910 298 532 297 
911 297 532 525 
912 299 539 298 
913 298 539 532 
914 300 533 299 
915 533 539 299 
916 301 522 300 
917 522 533 300 
918 302 529 301 
919 301 529 522 
920 303 521 302 
921 521 529 302 
922 304 516 303 
923 516 521 303 
924 305 548 304 
925 304 548 516 
926 306 549 305 
927 305 549 548 
928 307 560 306 
929 306 560 549 
930 308 570 307 
931 307 570 560 
932 309 557 308 
933 557 570 308 
934 310 571 309 
935 309 571 557 
936 311 561 310 
937 561 571 310 
938 312 572 311 
939 311 572 561 
940 313 573 312 
941 312 573 572 
942 314 562 313 
943 562 573 313 
944 315 574 314 
945 314 574 562 
946 316 575 315 
947 315 575 574 
948 317 563 316 
949 563 575 316 
950 318 564 317 
951 317 564 563 
952 319 565 318 
953 318 565 564 
954 320 566 319 
955 319 566 565 
956 321 567 320 
957 320 567 566 
958 322 558 321 
959 558 567 321 
960 323 551 322 
961 551 558 322 
962 324 555 323 
963 323 555 551 
964 325 550 324 
965 550 555 324 
966 326 568 325 
967 325 568 550 
968 327 569 326 
969 326 569 568 
970 328 576 327 
971 327 576 569 
972 329 559 328 
973 559 576 328 
974 330 552 329 
975 552 559 329 
976 331 556 330 
977 330 556 552 
978 332 553 331 
979 553 556 331 
980 332 554 553 
2 25 2 322
981 1 626 12 
982 17 626 1 
983 12 626 4 
984 4 626 254 
985 16 633 5 
986 5 633 95 
987 8 633 16 
988 332 633 8 
989 18 625 17 
990 625 626 17 
991 19 627 18 
992 18 627 625 
993 20 600 19 
994 600 627 19 
995 21 615 20 
996 20 615 600 
997 22 621 21 
998 21 621 615 
999 23 622 22 
1000 22 622 621 
1001 24 623 23 
1002 23 623 622 
1003 25 594 24 
1004 594 623 24 
1005 26 582 25 
1006 582 594 25 
1007 27 577 26 
1008 577 582 26 
1009 28 579 27 
1010 27 579 577 
1011 29 580 28 
1012 28 580 579 
1013 30 581 29 
1014 29 581 580 
1015 31 578 30 
1016 578 581 30 
1017 32 583 31 
1018 31 583 578 
1019 33 587 32 
1020 32 587 583 
1021 34 590 33 
1022 33 590 587 
1023 35 588 34 
1024 588 590 34 
1025 36 593 35 
1026 35 593 588 
1027 37 589 36 
1028 589 593 36 
1029 38 591 37 
1030 37 591 589 
1031 39 586 38 
1032 586 591 38 
1033 40 585 39 
1034 585 586 39 
1035 41 592 40 
1036 40 592 585 
1037 42 584 41 
1038 584 592 41 
1039 43 595 42 
1040 42 595 584 
1041 44 616 43 
1042 43 616 595 
1043 45 617 44 
1044 44 617 616 
1045 46 624 45 
1046 45 624 617 
1047 47 610 46 
1048 610 624 46 
1049 48 618 47 
1050 47 618 610 
1051 49 611 48 
1052 611 618 48 
1053 50 619 49 
1054 49 619 611 
1055 51 597 50 
1056 597 619 50 
1057 52 606 51 
1058 51 606 597 
1059 53 602 52 
1060 602 606 52 
1061 54 603 53 
1062 53 603 602 
1063 55 607 54 
1064 54 607 603 
1065 56 598 55 
1066 598 607 55 
1067 57 614 56 
1068 56 614 598 
1069 58 599 57 
1070 599 614 57 
1071 59 608 58 
1072 58 608 599 
1073 60 604 59 
1074 604 608 59 
1075 61 612 60 
1076 60 612 604 
1077 62 620 61 
1078 61 620 612 
1079 63 613 62 
1080 613 620 62 
1081 64 605 63 
1082 605 613 63 
1083 65 609 64 
1084 64 609 605 
1085 66 601 65 
1086 601 609 65 
1087 67 596 66 
1088 596 601 66 
1089 68 628 67 
1090 67 628 596 
1091 69 629 68 
1092 68 629 628 
1093 70 640 69 
1094 69 640 629 
1095 71 641 70 
1096 70 641 640 
1097 72 637 71 
1098 637 641 71 
1099 73 642 72 
1100 72 642 637 
1101 74 643 73 
1102 73 643 642 
1103 75 644 74 
1104 74 644 643 
1105 76 645 75 
1106 75 645 644 
1107 77 646 76 
1108 76 646 645 
1109 78 647 77 
1110 77 647 646 
1111 79 648 78 
1112 78 648 647 
1113 80 649 79 
1114 79 649 648 
1115 81 650 80 
1116 80 650 649 
1117 82 651 81 
1118 81 651 650 
1119 83 652 82 
1120 82 652 651 
1121 84 653 83 
1122 83 653 652 
1123 85 638 84 
1124 638 653 84 
1125 86 631 85 
1126 631 638 85 
1127 87 635 86 
1128 86 635 631 
1129 88 630 87 
1130 630 635 87 
1131 89 654 88 
1132 88 654 630 
1133 90 655 89 
1134 89 655 654 
1135 91 656 90 
1136 90 656 655 
1137 92 639 91 
1138 639 656 91 
1139 93 634 92 
1140 634 639 92 
1141 94 636 93 
1142 93 636 634 
1143 95 632 94 
1144 632 636 94 
1145 95 633 632 
1146 254 625 255 
1147 254 626 625 
1148 255 627 256 
1149 625 627 255 
1150 256 600 257 
1151 256 627 600 
1152 257 615 258 
1153 600 615 257 
1154 258 621 259 
1155 615 621 258 
1156 259 622 260 
1157 621 622 259 
1158 260 623 261 
1159 622 623 260 
1160 261 594 262 
1161 261 623 594 
1162 262 582 263 
1163 262 594 582 
1164 263 577 264 
1165 263 582 577 
1166 264 579 265 
1167 577 579 264 
1168 265 580 266 
1169 579 580 265 
1170 266 581 267 
1171 580 581 266 
1172 267 578 268 
1173 267 581 578 
1174 268 583 269 
1175 578 583 268 
1176 269 587 270 
1177 583 587 269 
1178 270 590 271 
1179 587 590 270 
1180 271 588 272 
1181 271 590 588 
1182 272 593 273 
1183 588 593 272 
1184 273 589 274 
1185 273 593 589 
1186 274 591 275 
1187 589 591 274 
1188 275 586 276 
1189 275 591 586 
1190 276 585 277 
1191 276 586 585 
1192 277 592 278 
1193 585 592 277 
1194 278 584 279 
1195 278 592 584 
1196 279 595 280 
1197 584 595 279 
1198 280 616 281 
1199 595 616 280 
1200 281 617 282 
1201 616 617 281 
1202 282 624 283 
1203 617 624 282 
1204 283 610 284 
1205 283 624 610 
1206 284 618 285 
1207 610 618 284 
1208 285 611 286 
1209 285 618 611 
1210 286 619 287 
1211 611 619 286 
1212 287 597 288 
1213 287 619 597 
1214 288 606 289 
1215 597 606 288 
1216 289 602 290 
1217 289 606 602 
1218 290 603 291 
1219 602 603 290 
1220 291 607 292 
1221 603 607 291 
1222 292 598 293 
1223 292 607 598 
1224 293 614 294 
1225 598 614 293 
1226 294 599 295 
1227 294 614 599 
1228 295 608 296 
1229 599 608 295 
1230 296 604 297 
1231 296 608 604 
1232 297 612 298 
1233 604 612 297 
1234 298 620 299 
1235 612 620 298 
1236 299 613 300 
1237 299 620 613 
1238 300 605 301 
1239 300 613 605 
1240 301 609 302 
1241 605 609 301 
1242 302 601 303 
1243 302 609 601 
1244 303 596 304 
1245 303 601 596 
1246 304 628 305 
1247 596 628 304 
1248 305 629 306 
1249 628 629 305 
1250 306 640 307 
1251 629 640 306 
1252 307 641 308 
1253 640 641 307 
1254 308 637 309 
1255 308 641 637 
1256 309 642 310 
1257 637 642 309 
1258 310 643 311 
1259 642 643 310 
1260 311 644 312 
1261 643 644 311 
1262 312 645 313 
1263 644 645 312 
1264 313 646 314 
1265 645 646 313 
1266 314 647 315 
1267 646 647 314 
1268 315 648 316 
1269 647 648 315 
1270 316 649 317 
1271 648 649 316 
1272 317 650 318 
1273 649 650 317 
1274 318 651 319 
1275 650 651 318 
1276 319 652 320 
1277 651 652 319 
1278 320 653 321 
1279 652 653 320 
1280 321 638 322 
1281 321 653 638 
1282 322 631 323 
1283 322 638 631 
1284 323 635 324 
1285 631 635 323 
1286 324 630 325 
1287 324 635 630 
1288 325 654 326 
1289 630 654 325 
1290 326 655 327 
1291 654 655 326 
1292 327 656 328 
1293 655 656 327 
1294 328 639 329 
1295 328 656 639 
1296 329 634 330 
1297 329 639 634 
1298 330 636 331 
1299 634 636 330 
1300 331 632 332 
1301 331 636 632 
1302 632 633 332 
2 26 2 14
1303 5 13 657 
1304 16 5 660 
1305 5 657 660 
1306 13 6 659 
1307 6 14 659 
1308 14 7 659 
1309 7 15 658 
1310 7 658 659 
1311 15 8 660 
1312 8 16 660 
1313 657 13 659 
1314 658 15 660 
1315 658 657 659 
1316 657 658 660 
3 1 4 1855
1317 103 182 514 434 
1318 338 498 188 578 
1319 338 188 109 578 
1320 268 498 338 578 
1321 268 338 31 578 
1322 267 109 188 578 
1323 267 30 109 578 
1324 188 498 267 578 
1325 338 109 30 578 
1326 384 125 544 624 
1327 544 462 125 384 
1328 384 46 125 624 
1329 125 283 544 624 
1330 125 462 544 204 
1331 46 283 125 624 
1332 544 283 125 204 
1333 573 485 234 645 
1334 485 645 413 155 
1335 230 557 72 309 
1336 72 557 230 151 
1337 284 47 530 205 
1338 205 47 530 126 
1339 128 451 49 207 
1340 207 531 49 286 
1341 645 485 234 155 
1342 514 261 182 103 
1343 24 514 103 261 
1344 543 383 203 617 
1345 383 543 203 461 
1346 545 48 127 285 
1347 127 206 545 285 
1348 382 542 202 460 
1349 542 382 202 616 
1350 383 203 617 124 
1351 383 203 124 461 
1352 45 124 383 617 
1353 203 282 543 617 
1354 230 557 477 151 
1355 557 72 397 151 
1356 47 450 126 370 
1357 450 530 47 126 
1358 530 450 205 126 
1359 284 530 47 610 
1360 128 49 451 371 
1361 451 531 49 207 
1362 382 202 123 460 
1363 382 202 616 123 
1364 382 44 123 616 
1365 202 281 542 616 
1366 45 282 203 617 
1367 124 45 203 617 
1368 316 237 158 648 
1369 316 158 79 648 
1370 314 235 77 646 
1371 235 156 77 646 
1372 313 234 76 645 
1373 645 234 76 155 
1374 644 233 312 75 
1375 44 202 123 616 
1376 44 281 202 616 
1377 311 232 74 643 
1378 153 74 232 643 
1379 313 573 234 645 
1380 413 645 76 155 
1381 463 206 545 127 
1382 48 545 127 385 
1383 285 545 48 618 
1384 397 477 557 151 
1385 450 47 530 370 
1386 370 47 530 610 
1387 451 49 531 371 
1388 127 545 463 385 
1389 48 545 385 618 
1390 42 424 279 121 
1391 424 279 121 200 
1392 309 557 72 637 
1393 235 486 156 646 
1394 637 557 72 397 
1395 233 644 312 572 
1396 232 483 153 643 
1397 629 549 69 389 
1398 389 469 549 148 
1399 233 644 412 75 
1400 560 480 149 400 
1401 640 560 70 400 
1402 78 236 157 414 
1403 315 236 78 414 
1404 231 152 73 642 
1405 310 231 73 642 
1406 412 233 75 154 
1407 201 122 43 595 
1408 43 280 201 595 
1409 231 482 152 642 
1410 647 414 315 78 
1411 314 562 235 646 
1412 646 156 77 403 
1413 504 42 424 279 
1414 504 279 424 200 
1415 42 424 121 344 
1416 279 504 42 584 
1417 286 531 49 611 
1418 561 232 311 643 
1419 643 153 74 402 
1420 120 512 432 352 
1421 41 512 352 592 
1422 150 71 570 401 
1423 560 149 70 400 
1424 549 69 389 148 
1425 642 482 152 411 
1426 231 571 482 642 
1427 371 49 531 611 
1428 425 505 39 345 
1429 505 425 119 345 
1430 345 277 505 585 
1431 345 505 39 585 
1432 310 571 231 642 
1433 642 152 73 411 
1434 41 512 120 352 
1435 432 199 512 120 
1436 278 512 41 592 
1437 484 644 233 572 
1438 644 484 233 412 
1439 68 305 629 389 
1440 305 226 469 389 
1441 147 469 226 389 
1442 486 156 646 403 
1443 487 647 315 574 
1444 486 235 562 646 
1445 512 352 198 432 
1446 352 512 198 592 
1447 643 483 153 402 
1448 232 561 483 643 
1449 157 236 487 414 
1450 487 315 414 236 
1451 487 315 236 574 
1452 515 122 435 201 
1453 412 484 233 154 
1454 515 122 201 595 
1455 43 122 355 595 
1456 201 280 515 595 
1457 647 487 315 414 
1458 119 277 505 345 
1459 197 505 39 425 
1460 425 39 118 345 
1461 119 425 505 198 
1462 276 39 505 585 
1463 40 277 345 585 
1464 570 481 150 401 
1465 553 632 94 393 
1466 641 570 71 401 
1467 199 41 512 120 
1468 41 199 512 278 
1469 71 150 570 308 
1470 570 150 229 308 
1471 655 326 247 89 
1472 247 655 89 168 
1473 42 504 424 344 
1474 42 504 344 584 
1475 352 198 432 119 
1476 352 198 119 592 
1477 198 512 277 592 
1478 352 119 40 592 
1479 94 556 252 396 
1480 608 448 59 368 
1481 466 176 540 625 
1482 176 18 466 97 
1483 18 176 466 625 
1484 276 505 39 197 
1485 119 505 277 198 
1486 40 277 119 345 
1487 425 39 197 118 
1488 252 553 94 173 
1489 252 553 331 94 
1490 632 331 553 94 
1491 448 608 59 528 
1492 94 473 553 393 
1493 94 636 556 396 
1494 306 549 69 629 
1495 69 306 640 400 
1496 400 306 480 148 
1497 296 528 59 608 
1498 367 527 292 447 
1499 36 115 353 593 
1500 137 448 216 608 
1501 430 113 192 350 
1502 227 549 469 148 
1503 529 144 223 302 
1504 529 65 144 302 
1505 119 277 40 592 
1506 277 119 198 592 
1507 556 94 252 331 
1508 173 94 252 396 
1509 58 216 295 608 
1510 216 58 137 608 
1511 216 448 528 608 
1512 137 448 608 368 
1513 419 186 28 107 
1514 186 28 265 419 
1515 265 499 28 579 
1516 186 265 499 419 
1517 339 419 28 107 
1518 28 499 265 419 
1519 339 28 419 579 
1520 28 499 419 579 
1521 499 185 419 579 
1522 339 419 185 579 
1523 339 185 27 579 
1524 339 185 419 106 
1525 185 499 264 579 
1526 339 27 185 106 
1527 264 27 185 579 
1528 338 188 418 109 
1529 498 338 188 418 
1530 338 418 498 268 
1531 110 418 338 268 
1532 418 189 498 268 
1533 418 110 189 268 
1534 338 31 110 268 
1535 428 191 270 112 
1536 116 274 506 589 
1537 115 36 273 593 
1538 116 506 274 195 
1539 37 274 116 589 
1540 101 456 375 621 
1541 456 21 100 375 
1542 456 535 179 621 
1543 456 180 535 621 
1544 255 540 176 625 
1545 176 18 255 625 
1546 535 258 179 621 
1547 22 101 375 621 
1548 181 23 260 622 
1549 22 259 180 621 
1550 456 179 21 621 
1551 179 258 21 621 
1552 375 456 21 621 
1553 100 179 21 456 
1554 101 22 180 621 
1555 180 259 535 621 
1556 23 181 102 622 
1557 456 101 180 621 
1558 294 136 57 614 
1559 161 82 491 406 
1560 490 160 239 564 
1561 160 239 564 318 
1562 318 160 81 405 
1563 161 491 82 240 
1564 318 564 160 405 
1565 240 491 82 565 
1566 565 82 240 319 
1567 320 492 241 162 
1568 490 160 564 405 
1569 244 323 631 86 
1570 565 491 82 406 
1571 492 320 83 162 
1572 85 322 631 164 
1573 322 243 631 164 
1574 257 534 20 178 
1575 60 218 525 297 
1576 528 59 217 296 
1577 257 20 520 178 
1578 20 520 178 99 
1579 448 59 217 528 
1580 379 18 466 625 
1581 379 466 18 97 
1582 342 26 105 263 
1583 105 184 502 263 
1584 304 67 146 388 
1585 146 225 304 388 
1586 348 428 270 112 
1587 270 33 348 112 
1588 271 192 113 350 
1589 113 34 271 350 
1590 191 270 508 428 
1591 423 190 503 111 
1592 32 190 503 269 
1593 115 273 513 593 
1594 190 32 503 111 
1595 194 273 513 115 
1596 132 290 53 363 
1597 133 54 212 363 
1598 54 212 363 291 
1599 19 360 98 256 
1600 300 63 142 605 
1601 300 142 221 605 
1602 374 20 178 99 
1603 215 459 136 294 
1604 294 459 136 614 
1605 223 144 521 302 
1606 521 144 65 302 
1607 471 244 631 86 
1608 471 244 86 165 
1609 244 555 323 86 
1610 244 555 86 165 
1611 549 227 306 148 
1612 560 149 228 307 
1613 560 70 149 307 
1614 306 69 549 148 
1615 631 243 471 164 
1616 166 324 635 87 
1617 324 245 166 635 
1618 325 246 167 390 
1619 88 325 167 390 
1620 328 249 479 91 
1621 167 494 246 325 
1622 91 249 479 170 
1623 329 250 472 92 
1624 324 166 390 87 
1625 250 171 472 92 
1626 88 167 325 409 
1627 166 324 390 245 
1628 178 534 20 374 
1629 547 18 627 255 
1630 520 20 360 99 
1631 94 553 473 173 
1632 553 252 473 173 
1633 173 473 94 393 
1634 295 216 528 608 
1635 374 179 100 455 
1636 291 363 54 603 
1637 291 524 212 603 
1638 363 290 53 603 
1639 212 363 291 603 
1640 374 178 455 99 
1641 605 63 142 365 
1642 86 555 475 165 
1643 555 244 475 165 
1644 165 475 86 395 
1645 635 323 555 86 
1646 245 475 166 635 
1647 324 555 245 635 
1648 87 635 166 395 
1649 246 470 167 390 
1650 325 550 246 390 
1651 568 246 494 325 
1652 245 166 470 390 
1653 167 494 325 409 
1654 374 534 179 455 
1655 534 178 455 374 
1656 185 27 417 106 
1657 27 185 417 264 
1658 417 184 105 263 
1659 60 218 139 444 
1660 303 436 66 145 
1661 303 224 436 145 
1662 323 551 244 631 
1663 164 631 85 391 
1664 243 551 322 631 
1665 263 26 105 577 
1666 304 146 67 596 
1667 60 218 444 525 
1668 569 327 655 90 
1669 355 515 122 435 
1670 515 355 122 595 
1671 524 290 363 603 
1672 524 363 212 603 
1673 635 555 475 86 
1674 86 475 635 395 
1675 475 245 555 635 
1676 475 166 635 395 
1677 470 246 550 390 
1678 550 245 470 390 
1679 608 58 137 368 
1680 556 331 636 94 
1681 105 502 184 422 
1682 342 105 502 263 
1683 225 146 468 388 
1684 304 225 468 388 
1685 263 342 26 582 
1686 67 304 628 388 
1687 305 68 147 389 
1688 305 147 226 389 
1689 165 86 471 391 
1690 471 244 551 631 
1691 631 471 86 391 
1692 471 631 164 391 
1693 551 243 471 631 
1694 88 630 325 390 
1695 324 630 87 390 
1696 245 550 324 630 
1697 630 324 245 390 
1698 654 494 325 568 
1699 140 61 219 372 
1700 298 219 61 372 
1701 84 558 163 321 
1702 558 242 163 321 
1703 183 262 25 582 
1704 104 183 25 582 
1705 654 247 326 89 
1706 89 654 247 168 
1707 367 292 55 447 
1708 550 325 630 390 
1709 245 550 630 390 
1710 325 409 654 88 
1711 494 654 325 409 
1712 494 247 654 168 
1713 417 185 497 264 
1714 27 417 106 337 
1715 497 184 417 263 
1716 444 139 60 364 
1717 356 66 436 145 
1718 264 417 27 577 
1719 263 105 417 577 
1720 337 105 26 577 
1721 303 66 436 596 
1722 596 146 67 356 
1723 525 444 60 364 
1724 131 52 210 606 
1725 289 210 52 606 
1726 163 558 478 242 
1727 422 105 502 342 
1728 628 304 468 388 
1729 263 502 342 582 
1730 168 89 654 409 
1731 326 568 247 654 
1732 480 149 228 560 
1733 168 654 494 409 
1734 568 494 247 654 
1735 502 104 183 422 
1736 219 452 140 372 
1737 452 219 298 372 
1738 468 68 388 147 
1739 558 84 163 398 
1740 502 104 582 183 
1741 342 104 25 582 
1742 502 262 183 582 
1743 264 497 417 577 
1744 27 417 337 577 
1745 263 417 497 577 
1746 337 417 105 577 
1747 66 436 596 356 
1748 596 436 146 356 
1749 381 547 18 627 
1750 558 163 478 398 
1751 133 447 527 367 
1752 556 476 252 396 
1753 502 342 104 422 
1754 342 502 104 582 
1755 628 468 68 388 
1756 307 560 70 640 
1757 516 146 225 304 
1758 132 290 442 211 
1759 440 177 98 256 
1760 257 520 20 600 
1761 520 177 440 256 
1762 440 178 520 99 
1763 212 442 133 363 
1764 132 442 290 363 
1765 290 524 442 211 
1766 19 360 256 600 
1767 98 360 440 256 
1768 360 520 256 600 
1769 360 20 520 600 
1770 520 360 256 440 
1771 360 440 520 99 
1772 363 524 212 442 
1773 524 290 442 363 
1774 516 224 436 303 
1775 436 146 225 516 
1776 304 516 146 596 
1777 506 346 116 589 
1778 225 468 548 304 
1779 436 516 303 596 
1780 436 596 146 516 
1781 547 18 255 454 
1782 257 20 534 615 
1783 374 179 615 100 
1784 381 177 547 256 
1785 534 374 179 615 
1786 374 534 20 615 
1787 129 50 208 619 
1788 287 208 50 619 
1789 548 68 147 305 
1790 226 548 147 305 
1791 468 548 304 628 
1792 173 252 476 396 
1793 527 212 447 133 
1794 447 292 55 134 
1795 134 447 292 213 
1796 177 381 98 256 
1797 98 381 19 256 
1798 21 258 179 615 
1799 21 179 100 615 
1800 330 251 476 172 
1801 93 330 476 172 
1802 454 176 18 255 
1803 18 176 454 97 
1804 346 506 116 426 
1805 468 68 147 548 
1806 208 464 129 619 
1807 447 527 292 213 
1808 55 447 134 367 
1809 556 251 476 330 
1810 476 93 172 396 
1811 256 547 381 627 
1812 69 306 400 148 
1813 306 227 480 148 
1814 468 628 68 548 
1815 179 258 534 615 
1816 547 176 454 255 
1817 305 548 68 628 
1818 374 21 100 615 
1819 256 381 19 627 
1820 469 549 226 305 
1821 548 147 468 226 
1822 327 569 248 90 
1823 90 248 169 410 
1824 481 150 229 570 
1825 308 570 71 641 
1826 90 655 569 410 
1827 547 381 18 454 
1828 168 655 89 410 
1829 247 569 326 655 
1830 386 129 464 619 
1831 464 208 546 619 
1832 454 177 547 381 
1833 248 495 169 410 
1834 452 298 612 372 
1835 454 177 381 98 
1836 18 454 381 97 
1837 50 129 386 619 
1838 546 208 287 619 
1839 328 576 249 91 
1840 170 91 249 416 
1841 651 565 82 406 
1842 479 328 91 399 
1843 319 565 82 651 
1844 429 271 34 349 
1845 90 569 248 410 
1846 266 29 340 108 
1847 420 187 266 108 
1848 196 38 507 275 
1849 189 110 423 583 
1850 480 560 227 306 
1851 382 542 43 616 
1852 122 460 542 382 
1853 383 543 44 617 
1854 123 461 543 383 
1855 280 43 542 616 
1856 122 542 460 201 
1857 122 542 43 382 
1858 384 544 203 624 
1859 544 203 462 384 
1860 485 645 75 413 
1861 209 439 130 597 
1862 281 44 543 617 
1863 202 461 543 123 
1864 123 543 44 383 
1865 122 43 542 201 
1866 280 542 43 201 
1867 433 194 513 115 
1868 509 271 429 349 
1869 281 543 44 202 
1870 202 543 44 123 
1871 37 116 346 589 
1872 426 506 116 195 
1873 311 74 232 644 
1874 74 153 232 644 
1875 249 496 170 416 
1876 485 233 75 573 
1877 413 75 485 154 
1878 384 203 45 624 
1879 544 282 203 624 
1880 124 462 203 384 
1881 641 70 149 401 
1882 495 248 569 410 
1883 433 272 35 593 
1884 645 485 75 573 
1885 77 156 235 647 
1886 314 77 235 647 
1887 316 158 237 649 
1888 316 79 158 649 
1889 238 80 650 317 
1890 80 238 650 159 
1891 318 81 160 651 
1892 160 239 318 651 
1893 428 190 111 587 
1894 114 509 193 429 
1895 485 75 233 154 
1896 573 233 75 312 
1897 203 282 45 624 
1898 268 31 110 583 
1899 268 110 189 583 
1900 124 203 45 384 
1901 307 70 149 641 
1902 149 228 307 641 
1903 429 114 509 349 
1904 288 209 130 597 
1905 130 51 288 597 
1906 91 576 249 416 
1907 353 433 35 593 
1908 612 298 61 372 
1909 75 573 312 645 
1910 643 152 402 73 
1911 60 525 604 297 
1912 423 503 189 583 
1913 300 221 522 605 
1914 343 423 110 583 
1915 525 60 604 364 
1916 482 72 230 151 
1917 72 482 230 309 
1918 114 193 272 433 
1919 114 272 35 433 
1920 205 284 47 618 
1921 49 464 128 207 
1922 207 49 546 286 
1923 229 150 477 308 
1924 111 190 32 587 
1925 190 269 32 587 
1926 115 273 36 346 
1927 194 273 115 346 
1928 292 134 517 55 
1929 134 292 517 213 
1930 208 50 519 287 
1931 208 519 50 129 
1932 308 71 150 397 
1933 283 125 204 610 
1934 125 283 46 610 
1935 113 271 34 429 
1936 113 192 271 429 
1937 545 284 205 618 
1938 230 482 571 309 
1939 72 482 411 151 
1940 464 49 546 207 
1941 464 49 128 386 
1942 121 279 42 355 
1943 200 515 279 121 
1944 221 533 142 300 
1945 533 63 142 300 
1946 232 153 484 644 
1947 143 64 522 365 
1948 115 426 194 346 
1949 519 208 439 129 
1950 513 272 433 593 
1951 150 477 308 397 
1952 557 229 477 308 
1953 479 91 170 399 
1954 370 204 450 125 
1955 370 204 125 610 
1956 370 125 46 610 
1957 204 530 283 610 
1958 439 209 519 597 
1959 235 156 487 647 
1960 311 232 572 644 
1961 74 153 644 412 
1962 346 506 273 589 
1963 359 130 439 597 
1964 508 190 428 587 
1965 496 249 576 416 
1966 559 249 479 328 
1967 111 348 428 587 
1968 235 574 314 647 
1969 647 77 156 414 
1970 477 557 308 397 
1971 530 370 204 450 
1972 370 530 204 610 
1973 643 152 73 561 
1974 452 612 139 372 
1975 222 522 143 301 
1976 64 143 522 301 
1977 231 73 561 310 
1978 73 231 561 152 
1979 59 217 604 138 
1980 59 217 296 604 
1981 199 278 41 584 
1982 482 642 72 411 
1983 307 228 570 641 
1984 483 643 152 402 
1985 71 308 637 397 
1986 313 403 646 76 
1987 73 561 310 643 
1988 220 141 453 299 
1989 299 62 141 613 
1990 294 57 136 358 
1991 57 294 599 358 
1992 294 136 215 358 
1993 295 216 58 358 
1994 216 137 58 358 
1995 599 295 58 358 
1996 210 52 523 289 
1997 522 445 143 365 
1998 216 438 137 358 
1999 215 136 438 358 
2000 515 279 121 355 
2001 200 435 515 121 
2002 355 279 42 595 
2003 238 564 317 650 
2004 159 650 80 405 
2005 239 565 318 651 
2006 81 160 651 406 
2007 605 522 64 365 
2008 38 511 196 117 
2009 511 38 196 275 
2010 266 187 421 108 
2011 421 29 266 108 
2012 153 484 644 412 
2013 484 572 232 644 
2014 637 308 557 397 
2015 328 479 559 399 
2016 433 35 114 353 
2017 647 156 487 414 
2018 574 235 487 647 
2019 527 367 292 607 
2020 643 483 152 561 
2021 472 329 552 250 
2022 521 65 144 361 
2023 343 110 31 583 
2024 189 503 268 583 
2025 285 48 127 611 
2026 285 127 206 611 
2027 92 171 472 392 
2028 479 171 250 559 
2029 367 292 607 55 
2030 529 144 65 369 
2031 483 152 561 231 
2032 199 504 278 584 
2033 371 127 48 611 
2034 206 531 285 611 
2035 513 272 193 433 
2036 289 52 523 602 
2037 367 527 133 607 
2038 612 60 139 372 
2039 209 288 519 597 
2040 51 130 359 597 
2041 190 508 269 587 
2042 121 435 515 355 
2043 515 279 355 595 
2044 346 273 36 589 
2045 117 196 38 347 
2046 32 348 111 587 
2047 517 437 134 213 
2048 429 34 113 349 
2049 488 158 237 648 
2050 527 212 133 607 
2051 330 552 251 172 
2052 172 93 330 392 
2053 509 271 192 429 
2054 316 575 237 648 
2055 648 158 79 415 
2056 449 144 223 529 
2057 302 529 65 609 
2058 291 212 527 607 
2059 522 143 445 222 
2060 367 133 54 607 
2061 133 212 54 607 
2062 54 212 291 607 
2063 143 222 301 609 
2064 64 143 301 609 
2065 296 217 525 604 
2066 364 59 604 138 
2067 301 522 64 605 
2068 366 52 131 606 
2069 526 210 289 606 
2070 301 222 529 609 
2071 294 538 459 614 
2072 614 459 136 378 
2073 614 136 57 378 
2074 215 538 459 294 
2075 24 514 261 594 
2076 286 49 546 619 
2077 453 299 533 220 
2078 223 144 441 521 
2079 275 38 507 586 
2080 340 420 266 108 
2081 187 266 500 420 
2082 140 61 465 219 
2083 61 219 298 620 
2084 378 56 214 135 
2085 538 214 56 293 
2086 526 288 209 130 
2087 130 288 51 366 
2088 302 65 521 601 
2089 479 171 559 399 
2090 214 437 135 598 
2091 93 634 330 392 
2092 472 251 552 172 
2093 102 181 457 622 
2094 104 434 354 594 
2095 434 183 514 594 
2096 135 56 214 598 
2097 214 56 293 598 
2098 276 39 507 197 
2099 39 507 197 118 
2100 601 303 66 145 
2101 224 303 601 145 
2102 519 50 597 287 
2103 330 552 172 392 
2104 553 632 393 662 
2105 540 466 625 661 
2106 553 393 473 662 
2107 613 62 141 373 
2108 141 453 299 613 
2109 599 294 518 358 
2110 294 215 518 358 
2111 518 295 599 358 
2112 295 518 216 358 
2113 216 518 438 358 
2114 438 518 215 358 
2115 379 625 466 661 
2116 614 538 56 293 
2117 434 104 183 594 
2118 378 214 459 135 
2119 533 142 453 221 
2120 300 533 63 613 
2121 38 511 117 591 
2122 275 511 38 591 
2123 501 266 187 421 
2124 29 421 341 108 
2125 266 501 29 421 
2126 366 288 51 606 
2127 303 521 224 601 
2128 634 552 330 392 
2129 172 552 472 392 
2130 437 214 517 598 
2131 102 376 23 622 
2132 162 83 492 407 
2133 298 532 452 612 
2134 328 639 91 399 
2135 196 507 38 347 
2136 114 193 509 588 
2137 350 34 271 590 
2138 529 449 144 369 
2139 609 529 65 369 
2140 349 114 509 588 
2141 112 430 191 590 
2142 260 536 181 622 
2143 566 492 241 320 
2144 357 135 437 598 
2145 349 271 34 588 
2146 638 321 558 84 
2147 183 262 514 594 
2148 354 25 104 594 
2149 558 638 84 398 
2150 144 441 521 361 
2151 601 65 521 361 
2152 219 532 452 298 
2153 349 509 271 588 
2154 64 143 609 369 
2155 250 329 639 92 
2156 639 171 250 92 
2157 563 80 238 317 
2158 563 238 80 159 
2159 85 638 322 164 
2160 243 322 638 164 
2161 22 180 376 101 
2162 180 22 376 259 
2163 272 193 114 588 
2164 114 35 272 588 
2165 443 290 53 132 
2166 132 443 290 211 
2167 82 161 240 407 
2168 566 240 82 319 
2169 28 186 580 107 
2170 186 28 580 265 
2171 260 23 181 623 
2172 181 23 102 623 
2173 82 566 319 652 
2174 656 248 169 90 
2175 656 327 248 90 
2176 182 261 537 103 
2177 24 261 103 377 
2178 112 191 270 590 
2179 112 270 33 590 
2180 157 236 78 415 
2181 78 236 315 415 
2182 653 320 241 162 
2183 320 653 83 162 
2184 116 274 431 195 
2185 567 163 242 321 
2186 84 321 163 408 
2187 267 109 30 581 
2188 267 188 109 581 
2189 25 262 183 594 
2190 104 25 183 594 
2191 299 453 533 613 
2192 53 290 443 602 
2193 112 350 430 590 
2194 648 78 315 415 
2195 139 218 60 532 
2196 218 60 532 297 
2197 62 141 539 299 
2198 539 141 220 299 
2199 465 61 140 387 
2200 219 61 465 620 
2201 538 56 214 378 
2202 526 288 130 366 
2203 293 517 214 598 
2204 430 510 191 590 
2205 517 55 598 292 
2206 56 135 357 598 
2207 532 60 139 612 
2208 420 266 500 340 
2209 612 452 139 532 
2210 576 328 656 91 
2211 639 328 559 399 
2212 60 532 297 612 
2213 141 453 613 373 
2214 322 558 243 638 
2215 240 161 492 407 
2216 559 171 250 639 
2217 35 114 349 588 
2218 276 507 39 586 
2219 340 186 420 107 
2220 361 601 66 145 
2221 242 493 163 567 
2222 85 638 164 398 
2223 112 33 350 590 
2224 193 272 509 588 
2225 117 427 196 347 
2226 56 538 614 378 
2227 510 270 191 590 
2228 214 459 538 378 
2229 218 139 452 532 
2230 575 488 237 648 
2231 488 158 648 415 
2232 91 656 576 416 
2233 526 288 366 606 
2234 431 196 511 117 
2235 29 501 266 581 
2236 351 38 117 591 
2237 237 563 316 649 
2238 79 158 649 404 
2239 329 559 250 639 
2240 92 639 171 399 
2241 90 169 656 416 
2242 248 576 327 656 
2243 317 563 80 649 
2244 347 507 38 586 
2245 639 559 171 399 
2246 446 526 209 130 
2247 61 465 620 387 
2248 421 109 188 581 
2249 427 197 507 118 
2250 340 186 107 580 
2251 107 28 340 580 
2252 500 265 186 580 
2253 362 53 443 602 
2254 443 290 523 602 
2255 457 376 102 622 
2256 457 181 536 622 
2257 53 443 132 362 
2258 443 523 290 211 
2259 351 274 37 591 
2260 431 274 511 195 
2261 341 30 109 581 
2262 267 501 188 581 
2263 511 351 117 591 
2264 500 340 186 420 
2265 507 196 427 347 
2266 80 563 159 404 
2267 489 238 563 159 
2268 180 376 457 259 
2269 180 536 259 457 
2270 180 376 101 457 
2271 566 82 240 407 
2272 298 219 539 620 
2273 465 141 220 539 
2274 299 539 62 620 
2275 652 82 566 407 
2276 103 261 537 377 
2277 103 537 182 458 
2278 157 488 236 415 
2279 321 567 163 408 
2280 130 446 526 366 
2281 351 511 117 431 
2282 566 240 492 407 
2283 39 507 347 586 
2284 340 500 186 580 
2285 567 493 163 408 
2286 511 274 351 591 
2287 109 421 341 581 
2288 421 188 501 581 
2289 614 538 459 378 
2290 102 23 377 623 
2291 649 563 80 404 
2292 24 261 377 623 
2293 181 537 260 623 
2294 84 653 321 408 
2295 241 567 320 653 
2296 162 653 83 408 
2297 465 539 219 620 
2298 511 274 431 351 
2299 159 563 489 404 
2300 458 103 537 377 
2301 377 261 537 623 
2302 567 321 653 408 
2303 333 626 380 661 
2304 657 394 633 662 
2305 95 393 632 662 
2306 379 17 625 661 
2307 1 380 333 626 
2308 657 5 633 394 
2309 96 379 466 661 
2310 174 473 393 662 
2311 553 332 632 662 
2312 540 625 254 661 
2313 540 175 466 661 
2314 473 253 553 662 
2315 3 541 334 661 
2316 554 7 658 662 
2317 334 541 11 336 
2318 15 554 658 660 
2319 334 467 3 661 
2320 474 658 7 662 
2321 380 335 333 661 
2322 659 394 657 662 
2323 336 334 541 661 
2324 660 554 658 662 
2325 380 335 9 333 
2326 657 659 13 394 
2327 336 626 333 661 
2328 660 657 633 662 
2329 467 334 335 661 
2330 474 659 658 662 
2331 335 380 96 661 
2332 659 174 394 662 
2333 541 254 336 661 
2334 332 554 660 662 
2335 335 96 467 661 
2336 659 474 174 662 
2337 254 626 336 661 
2338 332 660 633 662 
2339 380 626 17 661 
2340 633 394 95 662 
2341 96 335 2 380 
2342 6 659 174 394 
2343 4 541 254 336 
2344 332 554 8 660 
2345 336 333 334 661 
2346 658 657 660 662 
2347 380 1 17 626 
2348 95 633 5 394 
2349 96 2 335 467 
2350 659 474 6 174 
2351 336 254 4 626 
2352 660 8 332 633 
2353 334 333 335 661 
2354 659 657 658 662 
2355 1 333 336 626 
2356 633 660 5 657 
2357 393 95 394 662 
2358 393 394 174 662 
2359 335 3 334 467 
2360 659 7 474 658 
2361 625 17 626 661 
2362 633 95 632 662 
2363 625 626 254 661 
2364 332 633 632 662 
2365 380 17 379 661 
2366 380 379 96 661 
2367 336 12 1 626 
2368 660 5 16 633 
2369 583 268 31 578 
2370 335 10 3 467 
2371 474 14 7 659 
2372 3 175 541 661 
2373 554 253 7 662 
2374 175 3 467 661 
2375 253 474 7 662 
2376 268 267 498 578 
2377 94 632 95 393 
2378 339 27 28 579 
2379 506 274 273 589 
2380 375 21 22 621 
2381 513 273 272 593 
2382 190 191 508 428 
2383 290 524 291 603 
2384 324 323 555 635 
2385 337 26 27 577 
2386 596 67 66 356 
2387 379 17 18 625 
2388 442 132 133 363 
2389 177 178 520 440 
2390 467 96 466 661 
2391 554 332 553 662 
2392 554 553 253 662 
2393 541 540 254 661 
2394 467 466 175 661 
2395 473 174 474 662 
2396 509 192 193 429 
2397 541 175 540 661 
2398 560 228 480 227 
2399 90 89 655 410 
2400 268 503 269 583 
2401 221 522 445 222 
2402 549 306 305 629 
2403 604 60 59 364 
2404 651 82 81 406 
2405 81 80 650 405 
2406 346 36 115 353 
2407 527 517 292 213 
2408 55 134 357 367 
2409 430 192 113 429 
2410 557 570 229 308 
2411 473 474 253 662 
2412 103 104 434 354 
2413 182 183 514 434 
2414 46 47 370 610 
2415 654 89 88 409 
2416 296 295 528 608 
2417 556 331 330 636 
2418 59 58 608 368 
2419 640 70 307 641 
2420 149 228 481 480 
2421 149 70 400 401 
2422 278 512 504 199 
2423 41 120 344 352 
2424 199 432 424 120 
2425 222 529 522 301 
2426 592 41 278 584 
2427 604 296 59 608 
2428 306 69 640 629 
2429 389 69 400 148 
2430 469 480 227 148 
2431 437 517 214 213 
2432 32 33 348 587 
2433 429 113 114 349 
2434 640 70 69 400 
2435 20 21 374 615 
2436 164 478 163 398 
2437 330 329 552 634 
2438 547 176 177 454 
2439 434 183 104 422 
2440 104 25 354 342 
2441 514 502 262 183 
2442 326 655 654 89 
2443 400 480 149 148 
2444 381 18 19 627 
2445 191 192 510 430 
2446 69 68 629 389 
2447 295 294 518 599 
2448 297 296 525 604 
2449 389 147 469 148 
2450 522 301 300 605 
2451 385 47 48 618 
2452 384 45 46 624 
2453 544 283 282 624 
2454 234 233 485 573 
2455 155 413 485 154 
2456 462 124 125 384 
2457 462 203 544 204 
2458 71 70 641 401 
2459 149 150 481 401 
2460 344 41 42 584 
2461 624 282 45 617 
2462 461 462 203 124 
2463 383 124 45 384 
2464 543 544 282 203 
2465 147 469 468 226 
2466 68 147 389 388 
2467 628 68 305 629 
2468 48 49 371 611 
2469 136 137 438 358 
2470 583 32 269 587 
2471 481 229 150 477 
2472 229 228 481 570 
2473 624 46 283 610 
2474 125 450 462 204 
2475 283 544 530 204 
2476 46 125 370 384 
2477 397 71 150 401 
2478 230 571 482 231 
2479 573 313 312 645 
2480 251 556 552 330 
2481 392 172 93 396 
2482 77 76 646 403 
2483 645 76 75 413 
2484 74 73 643 402 
2485 362 52 53 602 
2486 382 43 44 616 
2487 44 45 383 617 
2488 194 433 426 115 
2489 426 115 116 346 
2490 519 208 209 439 
2491 439 129 130 359 
2492 386 129 50 359 
2493 519 546 208 287 
2494 464 439 208 129 
2495 616 44 281 617 
2496 542 543 281 202 
2497 460 461 202 123 
2498 382 123 44 383 
2499 477 229 557 230 
2500 397 150 477 151 
2501 461 543 203 202 
2502 123 124 461 383 
2503 206 463 451 127 
2504 206 531 545 285 
2505 48 127 371 385 
2506 126 450 125 370 
2507 530 450 204 205 
2508 311 74 644 643 
2509 127 128 451 371 
2510 451 206 531 207 
2511 75 312 644 645 
2512 202 460 542 201 
2513 123 460 122 382 
2514 76 313 645 646 
2515 543 282 281 617 
2516 647 314 77 646 
2517 647 78 315 648 
2518 649 316 79 648 
2519 650 317 80 649 
2520 651 318 81 650 
2521 652 319 82 651 
2522 305 304 548 628 
2523 230 477 482 151 
2524 463 545 206 205 
2525 463 126 127 385 
2526 571 557 230 309 
2527 411 397 72 151 
2528 450 463 205 126 
2529 530 545 284 205 
2530 47 126 385 370 
2531 610 47 284 618 
2532 114 193 433 429 
2533 542 281 280 616 
2534 464 546 208 207 
2535 128 129 464 386 
2536 386 49 128 371 
2537 128 464 451 207 
2538 546 531 207 286 
2539 171 479 170 399 
2540 234 562 573 313 
2541 234 485 486 155 
2542 76 403 413 155 
2543 637 308 71 641 
2544 484 485 233 154 
2545 233 573 572 312 
2546 75 413 412 154 
2547 352 40 41 592 
2548 115 433 114 353 
2549 308 307 570 641 
2550 277 505 512 198 
2551 345 119 40 352 
2552 119 432 425 198 
2553 277 40 592 585 
2554 553 556 252 331 
2555 393 94 173 396 
2556 411 482 152 151 
2557 152 483 482 231 
2558 472 251 250 552 
2559 411 152 73 402 
2560 231 561 571 310 
2561 637 72 71 397 
2562 557 309 308 637 
2563 30 31 338 578 
2564 432 512 199 198 
2565 120 432 119 352 
2566 118 119 425 345 
2567 425 197 505 198 
2568 505 277 276 585 
2569 345 39 40 585 
2570 73 72 642 411 
2571 78 77 647 414 
2572 496 169 170 416 
2573 644 75 74 412 
2574 191 428 430 112 
2575 599 58 295 608 
2576 521 529 223 302 
2577 570 560 228 307 
2578 367 54 133 363 
2579 527 524 212 291 
2580 353 35 114 349 
2581 515 542 280 201 
2582 122 460 435 201 
2583 43 122 382 355 
2584 73 310 642 643 
2585 616 280 43 595 
2586 512 278 277 592 
2587 342 25 26 582 
2588 628 68 67 388 
2589 540 175 176 466 
2590 133 134 447 367 
2591 292 517 293 598 
2592 285 284 545 618 
2593 572 312 311 644 
2594 315 314 574 647 
2595 252 251 476 556 
2596 454 176 466 97 
2597 234 486 235 562 
2598 486 156 403 155 
2599 424 199 504 200 
2600 424 120 121 344 
2601 231 561 483 232 
2602 152 153 483 402 
2603 612 61 60 372 
2604 611 285 48 618 
2605 571 310 309 642 
2606 614 294 538 293 
2607 520 534 257 178 
2608 448 438 137 216 
2609 217 525 528 296 
2610 520 547 177 256 
2611 107 339 419 106 
2612 499 185 186 419 
2613 589 273 36 593 
2614 100 101 456 375 
2615 179 180 535 456 
2616 599 294 57 614 
2617 160 491 490 239 
2618 491 160 161 406 
2619 240 239 491 565 
2620 565 564 239 318 
2621 406 81 160 405 
2622 492 491 161 240 
2623 160 490 159 405 
2624 490 239 238 564 
2625 492 493 241 162 
2626 163 478 493 242 
2627 109 110 418 338 
2628 498 188 189 418 
2629 189 110 418 423 
2630 423 428 190 111 
2631 621 22 259 622 
2632 534 535 258 179 
2633 176 547 540 255 
2634 378 459 136 135 
2635 379 96 466 97 
2636 256 520 257 600 
2637 438 459 136 215 
2638 455 179 100 456 
2639 375 21 100 374 
2640 330 636 634 93 
2641 635 631 323 86 
2642 478 471 243 164 
2643 343 31 110 338 
2644 189 503 498 268 
2645 343 110 423 111 
2646 273 513 506 194 
2647 189 190 503 423 
2648 627 255 18 625 
2649 534 178 179 455 
2650 368 137 448 138 
2651 173 174 473 393 
2652 473 253 252 553 
2653 581 30 267 578 
2654 348 33 350 112 
2655 455 100 374 99 
2656 168 494 167 409 
2657 246 494 247 568 
2658 350 113 34 349 
2659 269 503 508 190 
2660 348 343 32 111 
2661 360 20 374 99 
2662 214 437 459 135 
2663 244 471 475 165 
2664 560 549 227 306 
2665 331 632 636 94 
2666 472 479 171 250 
2667 550 246 568 325 
2668 390 167 88 409 
2669 167 494 470 246 
2670 142 143 445 365 
2671 166 475 165 395 
2672 475 245 244 555 
2673 395 166 87 390 
2674 166 470 475 245 
2675 245 550 555 324 
2676 470 246 245 550 
2677 166 167 470 390 
2678 417 419 185 106 
2679 339 337 27 106 
2680 185 499 497 264 
2681 551 323 322 631 
2682 86 85 631 391 
2683 577 27 264 579 
2684 448 444 217 138 
2685 561 311 310 643 
2686 368 59 364 138 
2687 244 243 471 551 
2688 165 471 164 391 
2689 395 86 165 391 
2690 244 555 551 323 
2691 630 635 324 87 
2692 88 87 630 390 
2693 550 325 324 630 
2694 104 105 422 342 
2695 183 184 502 422 
2696 452 139 140 372 
2697 468 146 147 388 
2698 337 105 417 106 
2699 497 184 185 417 
2700 364 444 139 138 
2701 356 436 146 145 
2702 621 258 21 615 
2703 314 313 562 646 
2704 355 42 43 595 
2705 422 184 105 417 
2706 184 497 502 263 
2707 26 105 337 342 
2708 444 218 139 452 
2709 139 60 364 372 
2710 468 146 225 436 
2711 388 67 146 356 
2712 551 558 243 322 
2713 391 85 164 398 
2714 577 263 26 582 
2715 628 304 67 596 
2716 325 654 630 88 
2717 249 496 479 170 
2718 508 510 270 191 
2719 226 549 548 305 
2720 134 437 447 213 
2721 360 381 19 98 
2722 251 472 476 172 
2723 172 173 476 396 
2724 465 452 140 219 
2725 61 140 387 372 
2726 447 212 527 213 
2727 247 494 495 168 
2728 272 509 513 193 
2729 224 516 521 303 
2730 19 256 627 600 
2731 440 455 178 99 
2732 99 360 440 98 
2733 284 283 530 610 
2734 304 303 516 596 
2735 487 236 235 574 
2736 157 487 156 414 
2737 201 435 515 200 
2738 121 122 435 355 
2739 572 233 484 232 
2740 412 153 484 154 
2741 574 562 235 314 
2742 156 487 486 235 
2743 414 77 156 403 
2744 279 504 515 200 
2745 200 424 435 121 
2746 355 42 121 344 
2747 72 309 637 642 
2748 221 522 533 300 
2749 232 572 561 311 
2750 74 153 412 402 
2751 484 483 153 232 
2752 604 60 297 612 
2753 42 279 584 595 
2754 381 454 98 97 
2755 603 290 53 602 
2756 380 9 1 333 
2757 657 13 5 394 
2758 263 262 502 582 
2759 287 519 288 597 
2760 515 280 279 595 
2761 169 496 495 248 
2762 271 510 509 192 
2763 225 548 516 304 
2764 212 442 447 133 
2765 379 18 381 97 
2766 257 20 615 600 
2767 476 473 252 173 
2768 177 454 440 98 
2769 247 569 568 326 
2770 410 89 168 409 
2771 276 39 585 586 
2772 507 505 276 197 
2773 22 23 376 622 
2774 248 247 495 569 
2775 169 495 168 410 
2776 56 614 293 598 
2777 265 499 500 186 
2778 28 340 339 107 
2779 186 419 420 107 
2780 49 50 386 619 
2781 426 194 506 195 
2782 436 224 441 145 
2783 361 66 356 145 
2784 601 66 303 596 
2785 269 508 270 587 
2786 437 134 135 357 
2787 613 63 62 373 
2788 606 52 289 602 
2789 546 287 286 619 
2790 335 9 2 380 
2791 659 6 13 394 
2792 278 504 279 584 
2793 531 286 285 611 
2794 307 306 560 640 
2795 193 194 513 433 
2796 343 31 32 583 
2797 576 569 248 327 
2798 410 169 90 416 
2799 226 549 469 227 
2800 569 327 326 655 
2801 517 214 538 293 
2802 135 378 56 357 
2803 288 519 526 209 
2804 51 130 366 359 
2805 564 318 317 650 
2806 319 318 565 651 
2807 601 66 65 361 
2808 94 93 636 396 
2809 541 4 11 336 
2810 554 15 8 660 
2811 50 51 359 597 
2812 597 51 288 606 
2813 548 468 225 226 
2814 242 478 243 558 
2815 620 298 61 612 
2816 249 248 496 576 
2817 291 527 292 607 
2818 35 36 353 593 
2819 350 430 113 112 
2820 559 576 249 328 
2821 399 91 170 416 
2822 346 36 37 589 
2823 619 286 49 611 
2824 366 51 52 606 
2825 656 655 327 90 
2826 434 103 182 458 
2827 537 514 261 182 
2828 377 103 24 354 
2829 83 82 652 407 
2830 649 80 79 404 
2831 441 224 223 521 
2832 326 325 568 654 
2833 172 472 171 392 
2834 534 258 257 615 
2835 163 493 162 408 
2836 350 33 34 590 
2837 529 223 449 222 
2838 345 39 118 347 
2839 197 427 425 118 
2840 216 528 518 295 
2841 84 163 398 408 
2842 558 567 242 321 
2843 594 25 262 582 
2844 142 445 453 221 
2845 365 63 142 373 
2846 63 300 613 605 
2847 358 137 58 368 
2848 363 53 132 362 
2849 523 524 290 211 
2850 289 288 526 606 
2851 250 552 559 329 
2852 92 171 392 399 
2853 532 525 218 297 
2854 591 274 37 589 
2855 506 511 274 195 
2856 341 109 30 338 
2857 421 188 109 418 
2858 498 501 188 267 
2859 603 54 291 607 
2860 449 445 143 222 
2861 369 64 143 365 
2862 301 64 609 605 
2863 28 265 579 580 
2864 622 23 260 623 
2865 634 639 329 92 
2866 259 535 536 180 
2867 22 101 376 375 
2868 456 180 101 457 
2869 588 35 272 593 
2870 407 82 161 406 
2871 240 566 565 319 
2872 631 638 322 85 
2873 564 563 238 317 
2874 489 490 238 159 
2875 405 80 159 404 
2876 322 321 558 638 
2877 132 442 443 211 
2878 529 302 301 609 
2879 354 24 25 594 
2880 514 262 261 594 
2881 50 287 619 597 
2882 28 29 340 580 
2883 249 479 250 559 
2884 634 93 92 392 
2885 367 54 55 607 
2886 320 653 652 83 
2887 216 528 448 217 
2888 553 332 331 632 
2889 559 329 328 639 
2890 315 575 316 648 
2891 79 78 648 415 
2892 590 270 33 587 
2893 116 431 426 195 
2894 116 37 346 351 
2895 209 439 446 130 
2896 140 141 465 387 
2897 62 61 620 387 
2898 57 56 614 378 
2899 459 214 538 215 
2900 499 265 264 579 
2901 255 254 540 625 
2902 535 259 258 621 
2903 162 492 161 407 
2904 111 428 348 112 
2905 256 255 547 627 
2906 53 54 363 603 
2907 64 63 605 365 
2908 635 87 86 395 
2909 525 218 444 217 
2910 264 263 497 577 
2911 414 157 78 415 
2912 236 487 488 157 
2913 236 575 574 315 
2914 541 11 3 334 
2915 7 15 554 658 
2916 442 524 212 211 
2917 360 19 20 600 
2918 533 539 220 299 
2919 436 225 224 516 
2920 55 56 357 598 
2921 533 453 220 221 
2922 240 492 241 566 
2923 532 452 218 219 
2924 656 91 90 416 
2925 298 297 532 612 
2926 465 220 141 453 
2927 141 62 387 373 
2928 299 62 613 620 
2929 358 57 136 378 
2930 215 518 538 294 
2931 523 526 210 289 
2932 131 52 366 362 
2933 300 299 533 613 
2934 509 272 271 588 
2935 141 142 453 373 
2936 507 276 275 586 
2937 361 144 441 145 
2938 186 187 500 420 
2939 340 420 108 107 
2940 328 327 576 656 
2941 275 274 511 591 
2942 591 38 275 586 
2943 598 292 55 607 
2944 361 65 144 369 
2945 441 144 223 449 
2946 341 340 29 108 
2947 187 420 421 108 
2948 500 501 266 187 
2949 196 507 511 275 
2950 302 65 601 609 
2951 563 317 316 649 
2952 319 566 320 652 
2953 609 65 64 369 
2954 449 143 144 369 
2955 501 187 188 421 
2956 341 421 109 108 
2957 510 271 270 590 
2958 638 85 84 398 
2959 209 210 526 446 
2960 131 446 130 366 
2961 215 518 438 216 
2962 521 303 302 601 
2963 493 242 241 567 
2964 220 465 539 219 
2965 539 299 298 620 
2966 443 210 523 211 
2967 58 57 599 358 
2968 347 38 39 586 
2969 196 197 507 427 
2970 23 24 377 623 
2971 523 290 289 602 
2972 443 131 132 362 
2973 511 196 431 195 
2974 341 29 30 581 
2975 267 266 501 581 
2976 328 639 656 91 
2977 376 23 377 102 
2978 458 181 457 102 
2979 537 536 181 260 
2980 404 79 158 415 
2981 563 575 237 316 
2982 158 489 488 237 
2983 653 321 638 84 
2984 590 34 271 588 
2985 210 446 443 131 
2986 38 117 347 351 
2987 196 431 427 117 
2988 83 162 408 407 
2989 566 241 567 320 
2990 581 266 29 580 
2991 623 24 261 594 
2992 219 539 532 298 
2993 92 91 639 399 
2994 351 37 38 591 
2995 260 259 536 622 
2996 34 35 349 588 
2997 158 488 157 415 
2998 237 236 488 575 
2999 537 181 182 458 
3000 377 458 103 102 
3001 567 321 320 653 
3002 84 83 653 408 
3003 116 117 431 351 
3004 536 180 181 457 
3005 376 101 457 102 
3006 159 489 158 404 
3007 489 238 237 563 
3008 117 118 427 347 
3009 537 261 260 623 
3010 500 266 265 580 
3011 2 10 335 467 
3012 474 6 14 659 
3013 336 4 12 626 
3014 16 8 660 633 
3015 405 318 650 81 
3016 405 650 318 564 
3017 59 448 138 368 
3018 59 138 448 217 
3019 348 270 587 33 
3020 503 583 32 269 
3021 309 482 642 72 
3022 309 642 482 571 
3023 463 205 385 545 
3024 463 385 205 126 
3025 618 385 205 545 
3026 194 346 506 273 
3027 506 346 194 426 
3028 155 403 234 76 
3029 155 234 403 486 
3030 313 234 403 76 
3031 424 199 344 504 
3032 424 344 199 120 
3033 584 344 199 504 
3034 451 206 371 531 
3035 451 371 206 127 
3036 611 371 206 531 
3037 611 206 371 127 
3038 340 266 580 29 
3039 340 580 266 500 
3040 560 400 306 480 
3041 306 400 560 640 
3042 549 389 305 469 
3043 305 389 549 629 
3044 570 401 149 481 
3045 149 401 570 641 
3046 149 228 570 481 
3047 570 228 149 641 
3048 593 433 115 353 
3049 593 115 433 513 
3050 32 583 111 343 
3051 32 111 583 503 
3052 423 111 583 343 
3053 423 583 111 503 
3054 556 396 93 476 
3055 93 396 556 636 
3056 93 330 556 476 
3057 556 330 93 636 
3058 405 159 238 490 
3059 238 159 405 650 
3060 238 564 405 490 
3061 405 564 238 650 
3062 406 160 239 491 
3063 239 160 406 651 
3064 239 565 406 491 
3065 406 565 239 651 
3066 428 587 270 508 
3067 270 587 428 348 
3068 168 410 247 655 
3069 168 247 410 495 
3070 569 247 410 655 
3071 569 410 247 495 
3072 522 365 142 445 
3073 142 365 522 605 
3074 142 221 522 445 
3075 522 221 142 605 
3076 525 364 138 444 
3077 138 364 525 604 
3078 138 217 525 444 
3079 525 217 138 604 
3080 118 507 347 39 
3081 118 347 507 427 
3082 594 24 103 354 
3083 103 24 594 514 
3084 103 434 594 354 
3085 594 434 103 514 
3086 50 597 129 519 
3087 50 129 597 359 
3088 439 129 597 519 
3089 439 597 129 359 
3090 464 619 49 386 
3091 49 619 464 546 
3092 392 92 329 472 
3093 329 92 392 634 
3094 329 552 392 472 
3095 392 552 329 634 
3096 598 55 134 357 
3097 134 55 598 517 
3098 134 437 598 357 
3099 598 437 134 517 
3100 376 622 259 22 
3101 236 415 648 315 
3102 648 415 236 488 
3103 648 575 236 315 
3104 236 575 648 488 
3105 274 351 116 431 
3106 116 351 274 37 
3107 590 271 192 510 
3108 192 271 590 350 
3109 192 430 590 510 
3110 590 430 192 350 
3111 398 164 243 638 
3112 243 164 398 478 
3113 243 558 398 638 
3114 398 558 243 478 
3115 169 416 248 656 
3116 169 248 416 496 
3117 576 248 416 656 
3118 576 416 248 496 
3119 613 63 142 533 
3120 142 63 613 373 
3121 142 453 613 533 
3122 613 453 142 373 
3123 529 369 143 449 
3124 143 369 529 609 
3125 143 222 529 449 
3126 529 222 143 609 
3127 521 361 145 601 
3128 145 361 521 441 
3129 145 224 521 601 
3130 521 224 145 441 
3131 566 407 83 652 
3132 83 407 566 492 
3133 83 320 566 652 
3134 566 320 83 492 
3135 443 602 52 362 
3136 52 602 443 523 
3137 443 210 52 523 
3138 526 210 131 446 
3139 131 210 526 606 
3140 131 366 526 446 
3141 526 366 131 606 
3142 465 620 62 539 
3143 62 620 465 387 
3144 62 141 465 539 
3145 465 141 62 387 
3146 421 581 29 341 
3147 29 581 421 501 
3148 404 158 237 489 
3149 237 158 404 649 
3150 237 563 404 489 
3151 404 563 237 649 
3152 567 408 162 493 
3153 162 408 567 653 
3154 162 241 567 493 
3155 567 241 162 653 
3156 457 622 259 376 
3157 259 622 457 536 
3158 181 537 102 458 
3159 181 102 537 623 
3160 377 102 537 458 
3161 377 537 102 623 
3162 385 205 47 618 
3163 385 47 205 126 
3164 562 234 646 313 
3165 562 646 234 486 
3166 403 646 234 313 
3167 403 234 646 486 
3168 344 199 41 584 
3169 344 41 199 120 
3170 52 443 131 210 
3171 131 443 52 362 
$EndElements
